<svg xmlns="http://www.w3.org/2000/svg" viewBox="0 0 16 16">
  <g id="Group_2" data-name="Group 2" transform="translate(0 0.001)">
    <path id="Path_40" data-name="Path 40" d="M16,8A8,8,0,1,1,7.994,0,7.991,7.991,0,0,1,16,8ZM5.88,9.867h4.264V6.124H5.88A20.849,20.849,0,0,0,5.88,9.867Zm-4.6-3.745a6.924,6.924,0,0,0,0,3.744H4.809V6.122Zm9.9,0V9.867a.172.172,0,0,0,.047.01c1.116,0,2.231,0,3.347,0,.138,0,.163-.07.19-.178a6.449,6.449,0,0,0,.2-2.1c-.04-.5-.136-.992-.207-1.487Zm-5.164,4.8c.019.112.033.2.05.3A8.444,8.444,0,0,0,7.1,14.233a2.656,2.656,0,0,0,.472.555.559.559,0,0,0,.833,0,2.371,2.371,0,0,0,.459-.51,9.286,9.286,0,0,0,1.12-3.365ZM9.968,5.08a.851.851,0,0,0-.01-.124c-.18-.71-.335-1.428-.553-2.126a3.669,3.669,0,0,0-.74-1.379.951.951,0,0,0-.611-.407.836.836,0,0,0-.736.413A5.849,5.849,0,0,0,6.312,3.682C6.187,4.136,6.1,4.6,6,5.08Zm-5,5.842H1.683c.532,1.588,3.23,3.849,4.484,3.762A11.138,11.138,0,0,1,4.972,10.923Zm6.081-.007c-.154.653-.273,1.305-.468,1.934s-.466,1.244-.7,1.845c1.421-.1,4.158-2.425,4.409-3.779ZM6.174,1.293C4.63,1.452,2.023,3.652,1.7,5.075H4.973A11.252,11.252,0,0,1,6.174,1.293ZM9.8,1.254c.084.155.141.254.193.356a11.142,11.142,0,0,1,.99,3.27c.03.179.1.217.265.216.951-.006,1.9,0,2.852,0,.068,0,.136-.008.238-.014A7.076,7.076,0,0,0,9.8,1.254Z" transform="translate(0)"/>
  </g>
</svg>
