<svg xmlns="http://www.w3.org/2000/svg" width="37.065" height="31.526" viewBox="0 0 37.065 31.526"><g id="Group_68" data-name="Group 68" transform="translate(.254 .257)"><path id="Path_307" data-name="Path 307" d="M28.807 21.265a2.243 2.243 0 01-2.218 2.489.507.507 0 00-.35.347 2.215 2.215 0 01-2.393 2.2 5.154 5.154 0 01-.684 1.676 2.828 2.828 0 01-1.62.767 1.946 1.946 0 00-1.359.592c-.446.486-.949.919-1.4 1.395a.608.608 0 01-1.035 0c-.43-.463-.919-.873-1.349-1.335-.357-.383-.654-.44-1.018-.017a2.072 2.072 0 01-2.215.754 2.041 2.041 0 01-1.54-1.927c-.023-.192-.221-.5-.357-.516a2.227 2.227 0 01-2.231-2.562c-.238-.033-.446-.066-.654-.093a1.924 1.924 0 01-1.888-1.846c-.05-.552-.268-.645-.747-.724a2.019 2.019 0 01-1.253-3.463c.582-.625.416-.949-.073-1.464a16.616 16.616 0 01-3.991-6.176 7.5 7.5 0 011.3-7.3A9.511 9.511 0 0110.153.05a9.234 9.234 0 016.1 2.734c.473.459.969.9 1.4 1.4.416.483.688.489 1.177.033a22.448 22.448 0 013.432-2.915 9.352 9.352 0 0111.443 1.545c1.752 1.765 2.979 3.755 2.847 6.333a9.806 9.806 0 01-2.089 5.3c-.826 1.13-1.749 2.188-2.608 3.292a2.333 2.333 0 00-.545.972c-.246 1.82-.665 2.293-2.503 2.521zm-15.511-.489c.188.033.291.063.4.073 1.4.129 1.9.608 2.178 2a.9.9 0 00.615.535 2.03 2.03 0 011.887 1.755 2.086 2.086 0 00.45.929 21.458 21.458 0 001.57 1.57 1.479 1.479 0 102-2.142c-1.557-1.557-3.12-3.1-4.677-4.658a3.555 3.555 0 01-.526-.631.291.291 0 01.423-.38 6.479 6.479 0 01.671.608c1.6 1.593 3.183 3.2 4.8 4.773a1.355 1.355 0 002.049-.036 1.323 1.323 0 00.033-1.98c-.255-.288-.532-.555-.807-.83-1.445-1.438-2.9-2.866-4.324-4.317a2.068 2.068 0 01-.291-.684c.255.076.516.136.764.231.1.036.159.145.238.225 1.537 1.534 3.058 3.084 4.621 4.588.334.321.859.707 1.236.651a2.378 2.378 0 001.352-.879 1.092 1.092 0 00-.228-1.494c-1.527-1.544-3.064-3.081-4.595-4.621a7.768 7.768 0 01-.734-.78c-.086-.116-.04-.334-.056-.5a1.425 1.425 0 01.512.086 2.555 2.555 0 01.483.446c1.577 1.573 3.144 3.16 4.737 4.72a1.425 1.425 0 002.188.026 1.4 1.4 0 00-.152-2.116c-2.882-2.869-5.788-5.715-8.637-8.621-.612-.621-.945-.555-1.494.03-.975 1.045-2 2.056-3.061 3.011a2.351 2.351 0 01-2.773.053 2.261 2.261 0 01-.671-2.539 4.586 4.586 0 01.949-1.322c1.071-1.1 2.182-2.162 3.365-3.325-.724-.734-1.355-1.415-2.03-2.046A8.71 8.71 0 007.228.956a9.109 9.109 0 00-5.259 3.881 6.341 6.341 0 00-1.246 5.2c.668 3 2.509 5.272 4.509 7.447a.772.772 0 00.724-.05c.453-.354.823-.81 1.256-1.193a1.973 1.973 0 013.153.5 2.509 2.509 0 001.861 1.831c.906.237 1.051 1.252 1.07 2.204zM26.833.652a7.071 7.071 0 00-4.9 1.62c-2.631 2.37-5.117 4.9-7.616 7.414a1.621 1.621 0 00-.288 1.283 1.567 1.567 0 002.757.717c1.124-1.054 2.188-2.172 3.276-3.259.658-.654.8-.635 1.454.023 2.995 2.992 6.006 5.97 9 8.965.324.324.572.374.866-.02 1.064-1.431 2.231-2.793 3.183-4.294a6.975 6.975 0 001.084-6.062A9.289 9.289 0 0026.833.652zM10.279 17.768a5.38 5.38 0 00-1.008-1.266 1.275 1.275 0 00-1.659.221 88.527 88.527 0 00-2.608 2.628 1.407 1.407 0 00-.023 2.125 1.371 1.371 0 002.108-.074q1.289-1.21 2.509-2.5a7.138 7.138 0 00.681-1.134zm6.188 6.112a3.3 3.3 0 00-.992.383c-.995.945-1.987 1.9-2.9 2.922a1.4 1.4 0 00.079 1.95 1.281 1.281 0 001.858.129 30.244 30.244 0 002.952-2.978 1.751 1.751 0 00.093-1.507c-.161-.397-.733-.622-1.09-.899zm-3.871-3.193a1.463 1.463 0 00-.8-1.653 1.272 1.272 0 00-1.59.228q-1.3 1.254-2.572 2.545a1.412 1.412 0 00-.149 2.172 1.481 1.481 0 002.255-.077 73.897 73.897 0 002.413-2.469 3.2 3.2 0 00.443-.746zm1.074.7a3.754 3.754 0 00-.909.473q-1.349 1.274-2.621 2.625a1.458 1.458 0 00-.063 2.076 1.382 1.382 0 002.119-.007c.9-.85 1.749-1.749 2.611-2.635a1.3 1.3 0 00.284-1.583 1.533 1.533 0 00-1.42-.949zm6.545 7.13a3.768 3.768 0 00-.235-.334c-.288-.294-.578-.585-.866-.876-.81-.816-.81-.816-1.593-.03a5.506 5.506 0 00-.8.816.779.779 0 00-.01.724c1.395 1.666 1.4 1.656 2.958.132a4.674 4.674 0 01.547-.432z" fill="#fff" stroke="#fff" stroke-width=".5"/></g></svg>