<svg xmlns="http://www.w3.org/2000/svg" viewBox="0 0 288.71 91.1"><defs><clipPath id="A"><path d="M179.6 0h109.1v91.1H179.6z" fill="none"/></clipPath></defs><path d="M158 87.13h6.93V51.76H158zm-9.32 0V51.76h-6.93v29.78h-5.82c-.15 0-.23.06-.23.18v5.18a.21.21 0 0 0 .23.23zM116.66 71a8.63 8.63 0 0 1 4.34-1.3 3.93 3.93 0 0 1 3.2 1.47 6 6 0 0 1 1.21 3.94 6.23 6.23 0 0 1-1.9 4.57 6.42 6.42 0 0 1-4.72 1.89H117a16.87 16.87 0 0 1-1-5.46 18.92 18.92 0 0 1 .68-5.14m-11.14 10.57c-.15 0-.22.06-.22.18v5.18c0 .15.07.23.22.23h14.14a14.36 14.36 0 0 0 4.73-.79 12.1 12.1 0 0 0 4.07-2.34 9.07 9.07 0 0 0 3.42 2.42 11.67 11.67 0 0 0 4.26.7h.25a.21.21 0 0 0 .23-.23v-5.17c0-.12-.08-.18-.23-.18h-.25a8.4 8.4 0 0 1-2.72-.38 4.74 4.74 0 0 1-1.92-1.28 13.19 13.19 0 0 0 .87-4.8A11.35 11.35 0 0 0 131 69.3a9.72 9.72 0 0 0-4-3.85 12.26 12.26 0 0 0-5.78-1.37 17.6 17.6 0 0 0-4.45.68 20.26 20.26 0 0 0-4.78 2 17 17 0 0 0-1.68 4 15.49 15.49 0 0 0-.68 4.37 15.93 15.93 0 0 0 1.24 6.41zm-4.2-22.36a3.37 3.37 0 0 0 .85-2.44 3.48 3.48 0 0 0-.82-2.46 2.9 2.9 0 0 0-2.27-.9 2.94 2.94 0 0 0-2.28.9 3.49 3.49 0 0 0-.83 2.46 3.41 3.41 0 0 0 .84 2.44 3.27 3.27 0 0 0 4.51 0m-7.92 0a3.44 3.44 0 0 0 .84-2.47 3.5 3.5 0 0 0-.82-2.48 2.89 2.89 0 0 0-2.25-.88 2.94 2.94 0 0 0-2.28.9 3.49 3.49 0 0 0-.83 2.46 3.41 3.41 0 0 0 .84 2.44 3.3 3.3 0 0 0 4.5 0M106 87.13a.21.21 0 0 0 .23-.23v-5.18c0-.12-.08-.18-.23-.18h-7V64.08h-6.9v17.46h-7.2c-.15 0-.23.06-.23.18v5.18a.21.21 0 0 0 .23.23zm-20.68 0c.17 0 .25-.08.25-.23v-5.18c0-.12-.08-.18-.25-.18h-3q-2.05-2-3.25-8.93-.82-4.8-3.4-6.9c-1.73-1.4-4.15-2.1-7.25-2.1a20.37 20.37 0 0 0-9.73 2.22l2.1 5.15a14.86 14.86 0 0 1 3.12-1.34 10.78 10.78 0 0 1 3.11-.44 5 5 0 0 1 3.72 1.26 8.84 8.84 0 0 1 1.88 4.4c.66 3.28 1.6 5.5 2.84 6.66H56.6c-.15 0-.23.06-.23.18v5.18a.21.21 0 0 0 .23.23zm-56.9 0h28.66a.21.21 0 0 0 .23-.23v-5.18c0-.12-.08-.18-.23-.18H51a34.83 34.83 0 0 0-5.5-13.64 22.18 22.18 0 0 0-9.88-7.59L33 66.83A17.93 17.93 0 0 1 38.15 70a16.35 16.35 0 0 1 3.5 4.57 29.4 29.4 0 0 1 2.33 7H28.43zM17.2 59.18a3.38 3.38 0 0 0 .86-2.44 3.56 3.56 0 0 0-.82-2.47 2.94 2.94 0 0 0-2.25-.89 3 3 0 0 0-2.29.89 3.51 3.51 0 0 0-.83 2.47 3.41 3.41 0 0 0 .84 2.44 3 3 0 0 0 2.28.9 2.92 2.92 0 0 0 2.23-.9m-7.92 0a3.4 3.4 0 0 0 .85-2.47 3.55 3.55 0 0 0-.82-2.48 2.92 2.92 0 0 0-2.25-.88 3 3 0 0 0-2.29.89 3.51 3.51 0 0 0-.8 2.5 3.41 3.41 0 0 0 .84 2.44 3 3 0 0 0 2.28.9 2.94 2.94 0 0 0 2.22-.87M7.9 80.63a5.71 5.71 0 0 1-1.2-4 9.5 9.5 0 0 1 1.4-5.27 4 4 0 0 1 3.4-2.16 4.08 4.08 0 0 1 3.42 2.21 9.45 9.45 0 0 1 1.42 5.22 5.83 5.83 0 0 1-1.17 4 4.64 4.64 0 0 1-3.63 1.3 4.72 4.72 0 0 1-3.64-1.3M20.36 85q3-2.6 3-8.1a14.4 14.4 0 0 0-1.63-6.74 12.34 12.34 0 0 0-4.21-4.83 10.37 10.37 0 0 0-5.75-1.68 10.92 10.92 0 0 0-6.1 1.74 11.61 11.61 0 0 0-4.14 4.81A15.26 15.26 0 0 0 0 76.88c0 3.53 1 6.2 3 8s4.85 2.7 8.64 2.7 6.8-.86 8.77-2.6M158 42h6.93V6.64H158zm-35.34-31.82c.33-.1 1.77-.3 4.33-.6l5.5-.57V6.3q-1.4.1-3.78.48l-.82.13a2.51 2.51 0 0 1-1-.82 2 2 0 0 1-.41-1.27 2.17 2.17 0 0 1 .61-1.64 2.25 2.25 0 0 1 1.61-.59 5.63 5.63 0 0 1 2.53.59l.93-2.36a7.85 7.85 0 0 0-3.81-.84 5.81 5.81 0 0 0-3.73 1.11 3.79 3.79 0 0 0-1.38 3.12 3.06 3.06 0 0 0 .59 1.89 4.11 4.11 0 0 0 1.5 1.27l-2.66.43zM122.2 42h17.1a9.38 9.38 0 0 0 7.24-2.84 10.73 10.73 0 0 0 2.63-7.59V6.64h-6.93V31a6.31 6.31 0 0 1-1.08 4.1 4.2 4.2 0 0 1-3.4 1.29h-.32l-5.54-23.5h-7.25l6 23.5h-8.44zm-20.38-16.16a8.73 8.73 0 0 1 4.34-1.3 3.93 3.93 0 0 1 3.2 1.47 6 6 0 0 1 1.21 3.99 6.23 6.23 0 0 1-1.9 4.57 6.43 6.43 0 0 1-4.67 1.84h-1.8a16.87 16.87 0 0 1-1.06-5.41 18.92 18.92 0 0 1 .68-5.14M90.7 36.4c-.15 0-.22.06-.22.18v5.18c0 .15.07.23.22.23h14.14a13.94 13.94 0 0 0 6.48-1.52 11.39 11.39 0 0 0 4.58-4.25 11.89 11.89 0 0 0 1.64-6.23 11.34 11.34 0 0 0-1.43-5.78 9.78 9.78 0 0 0-4-3.85A12.26 12.26 0 0 0 106.3 19a17.16 17.16 0 0 0-4.45.68 19.82 19.82 0 0 0-4.78 2 17.08 17.08 0 0 0-1.68 4A15.45 15.45 0 0 0 94.7 30a15.94 15.94 0 0 0 1.3 6.41zM71.36 25.84a8.76 8.76 0 0 1 4.34-1.3A4 4 0 0 1 78.9 26a5.94 5.94 0 0 1 1.21 4 6.22 6.22 0 0 1-1.89 4.57 6.4 6.4 0 0 1-4.7 1.89h-1.77A16.91 16.91 0 0 1 70.68 31a19.32 19.32 0 0 1 .68-5.14M91.16 42a.21.21 0 0 0 .23-.23V36.6c0-.12-.08-.18-.23-.18h-.23a8.35 8.35 0 0 1-2.77-.41 4.57 4.57 0 0 1-1.93-1.34 12.89 12.89 0 0 0 .88-4.66 11.33 11.33 0 0 0-1.45-5.78 9.85 9.85 0 0 0-4-3.86A12.19 12.19 0 0 0 75.84 19a17 17 0 0 0-4.57.72 19.45 19.45 0 0 0-4.63 1.94 16 16 0 0 0-1.69 4 15.69 15.69 0 0 0-.7 4.43 16.45 16.45 0 0 0 1.25 6.45 6.37 6.37 0 0 0-4.5 2 7 7 0 0 0-1.59 4.84v13.6h6.93V45.6a3.77 3.77 0 0 1 .84-2.76 4.09 4.09 0 0 1 2.93-.83h4.3a14.43 14.43 0 0 0 4.75-.79 12.27 12.27 0 0 0 4.09-2.32 9.69 9.69 0 0 0 3.42 2.4 11.38 11.38 0 0 0 4.26.71z" fill="#fff"/><g clip-path="url(#A)"><g clip-path="url(#A)" fill="#fff"><path d="M266.05 83.07a13.91 13.91 0 0 1-9.26 1.08 30.64 30.64 0 0 1-6.25-2.15l-4.4-1.8a20.63 20.63 0 0 0-11.78-.26h-.4a20.63 20.63 0 0 0-11.78.26c-1.5.5-2.94 1.18-4.4 1.8a30.76 30.76 0 0 1-6.24 2.17 13.94 13.94 0 0 1-9.27-1.08l-.44-.22a.21.21 0 0 0-.15.07 16.08 16.08 0 0 0 7 4.13 14 14 0 0 0 5.51.4 17.74 17.74 0 0 0 7.8-3l4.25-2.85a7 7 0 0 1 5.29-1c1 .1.25.6.1.68a41.27 41.27 0 0 0-7.13 4.44c-1.5 1.1-4.2 3.7-4.2 3.7l2 1.73 2.2-2.4a37.48 37.48 0 0 1 9.21-7.14.93.93 0 0 1 .45-.17.89.89 0 0 1 .45.17 37.64 37.64 0 0 1 9.22 7.14l2.2 2.4 2-1.73a55.45 55.45 0 0 0-4.21-3.7 41.27 41.27 0 0 0-7.13-4.44c-.15-.08-.93-.57.1-.68a7 7 0 0 1 5.29 1l4.25 2.85a17.74 17.74 0 0 0 7.8 3 14 14 0 0 0 5.51-.4 16 16 0 0 0 7-4.12s-.1-.1-.14-.08l-.44.22m9.76-8.7a12.63 12.63 0 0 1-4.18 2.21 24.12 24.12 0 0 1-6.59 1 79.4 79.4 0 0 0-8.59.74c-.18 0-.26 0-.2-.1a10.58 10.58 0 0 0 5.61-5.41l2.8-5.65V67c-.2.07-3 2.46-4.3 3.65l-4.66 4.52a17.55 17.55 0 0 1-7.34 3.75h-.1a.38.38 0 0 0-.07.11h.06l5.38 1.26a37.07 37.07 0 0 0 6.94 1.29A16.69 16.69 0 0 0 276 74.41a.21.21 0 0 0-.19 0m8.73-13.4a22.28 22.28 0 0 1-5 4.36 31.59 31.59 0 0 1-5.14 2.8 27.39 27.39 0 0 0-6.31 3.71l-.36.28c-.07 0-.14 0-.06-.13s3-3.1 3.88-9.4a37.93 37.93 0 0 1 1.06-6.72.23.23 0 0 0 0-.17 29.29 29.29 0 0 0-4.75 8.63l-1.76 5.06a16 16 0 0 1-3.65 6.14l-.16.16a.27.27 0 0 0 0 .11c.25 0 .4-.06.57-.1l5.85-1.2a19.09 19.09 0 0 0 8.77-3.74 20.78 20.78 0 0 0 6.35-7.43 13.15 13.15 0 0 0 1-2.42.2.2 0 0 0-.18 0m3.7-14.94a18.11 18.11 0 0 1-4.58 7.18 66.49 66.49 0 0 0-6.63 7.54c0 .07-.16 0-.1-.08a19.57 19.57 0 0 0 .61-8.48c-.38-2.4-1.43-5-1.7-7.94 0 0-.08-.13-.12-.13a2.42 2.42 0 0 0-.1.28 26.91 26.91 0 0 0-1.24 5.82c-.12 2.4.33 5.46.13 7.92-.23 2.84-.42 5.65-1.73 8.23v.2l6-3.73a23.07 23.07 0 0 0 6.31-6 18 18 0 0 0 3.29-10.49v-.38c0-.03-.14.07-.15.1"/><path d="M282.05 47.6a.08.08 0 0 1-.05.06c-.07 0-.1-.06-.1-.07a14 14 0 0 0 0-2.41c-.2-2.8-1.9-5.14-3.4-7.47a35.71 35.71 0 0 1-2.69-4.79s-.12-.08-.15-.07a16 16 0 0 0 .09 1.62 53.58 53.58 0 0 0 3 11.77 16.32 16.32 0 0 1 1.06 7.44c0 .22 0 .25.06.32.9-1.3 2.67-3.14 3.75-4.46s7.1-8.2 4.2-17.6a6.72 6.72 0 0 0-.46-1.16c-.05 0-.12.1-.13.14 0 6.78-3.26 9.7-4.63 14.32-.26.88-.47 1.7-.64 2.38m.12-14.02l-.64-1.66-.38-.85a13.37 13.37 0 0 0-4.12-4.56 21.92 21.92 0 0 1-3.61-4 .27.27 0 0 0-.16 0h-.07c.06.28 1 3.27 1.6 4.66a27.07 27.07 0 0 0 3.58 5.42l.28.38a30 30 0 0 1 3.92 7.46c0 .06.13.1.14.08a83.36 83.36 0 0 1 1.66-5.17 50.2 50.2 0 0 0 1.47-5.58c.64-4.46-.83-10.24-3.43-13.4a.21.21 0 0 0-.07.16 6.34 6.34 0 0 1 .12.41 5.69 5.69 0 0 1 .16.59 18.46 18.46 0 0 1 .12 7.42 31.76 31.76 0 0 0-.55 5.9c0 .33.22 2.77.2 2.87s-.13 0-.14 0m-8.1-25.23a8.6 8.6 0 0 1 1.93 2.79c.7 1.68.92 4.2 1.4 6.13l.86 3.3c0 .12-.08.17-.14.06a18.22 18.22 0 0 0-5.38-4.45 12.23 12.23 0 0 1-3.5-3.15l-.54-.7s-.12-.06-.15 0a1.46 1.46 0 0 0 0 .29 12.5 12.5 0 0 0 3.08 6c1.26 1.2 2.68 2.27 4 3.4a34.52 34.52 0 0 1 4.76 4.84s.1.07.1 0l-.05-1.57.13-4.8.05-1.65a11.75 11.75 0 0 0-.88-4.8 11.09 11.09 0 0 0-5.26-5.74 2.07 2.07 0 0 0-.48-.15.27.27 0 0 0 0 .18m-10.2-4.73a23.38 23.38 0 0 1 3.67 4.38 21.23 21.23 0 0 0 3.46 4.27c.93.94 3.64 3 4.3 3.57h.06c-.15-.78-1.37-6.48-4.94-9.3a18 18 0 0 0-6.94-3.36.27.27 0 0 0 0 .17l.33.28m-56 77.88a37.12 37.12 0 0 0 6.93-1.29l5.38-1.26h.06a.2.2 0 0 0-.06-.11.31.31 0 0 0-.1 0 17.55 17.55 0 0 1-7.34-3.75l-4.67-4.52-4.3-3.65a.44.44 0 0 0 0 .15c.42.55 1.9 3.92 2.8 5.65a10.58 10.58 0 0 0 5.61 5.41c.06.06 0 .14-.2.1a79.4 79.4 0 0 0-8.59-.74 24.07 24.07 0 0 1-6.59-1 12.63 12.63 0 0 1-4.18-2.21.23.23 0 0 0-.2 0 0 0 0 0 0 0 0 16.69 16.69 0 0 0 15.45 7.23m-2.23-5.9c.16 0 .33.06.58.1a.39.39 0 0 0 0-.11l-.16-.16a16.14 16.14 0 0 1-3.65-6.14l-1.76-5.06a29.29 29.29 0 0 0-4.75-8.63.2.2 0 0 0-.05.17 37 37 0 0 1 1.07 6.72c.87 6.3 3.78 9.3 3.88 9.4s0 .18-.06.13l-.37-.28a27.18 27.18 0 0 0-6.31-3.71 31.49 31.49 0 0 1-5.13-2.8 22.51 22.51 0 0 1-5-4.36.2.2 0 0 0-.18 0 13.89 13.89 0 0 0 1 2.42 21 21 0 0 0 6.35 7.43 19.13 19.13 0 0 0 8.78 3.74c2 .32 3.9.8 5.84 1.2M189.37 62.8l6 3.73a.38.38 0 0 0 0-.2c-1.3-2.58-1.5-5.4-1.72-8.23-.2-2.46.25-5.53.12-7.92a26.32 26.32 0 0 0-1.23-5.82 2.42 2.42 0 0 0-.1-.28s-.1.1-.12.13 0 0 0 0c-.26 2.93-1.3 5.55-1.7 7.94a19.57 19.57 0 0 0 .62 8.48c0 .12-.07.15-.12.08a65.52 65.52 0 0 0-6.63-7.54 18.11 18.11 0 0 1-4.56-7.16s-.12-.1-.14-.1a1.68 1.68 0 0 0 0 .38 18.11 18.11 0 0 0 3.28 10.49 23.25 23.25 0 0 0 6.32 6M188.34 54c.1-.07.08-.1.06-.32a16.31 16.31 0 0 1 1.05-7.44 52.49 52.49 0 0 0 3-11.77l.1-1.62-.16.07a34.64 34.64 0 0 1-2.69 4.79c-1.48 2.33-3.18 4.66-3.38 7.47a13 13 0 0 0 .05 2.41s0 .1-.1.07a.08.08 0 0 1-.05-.06l-.64-2.38c-1.37-4.63-4.65-7.54-4.63-14.32 0 0-.1-.14-.13-.14a5.35 5.35 0 0 0-.46 1.16c-2.92 9.42 3 16.18 4.18 17.6s2.85 3.16 3.76 4.46m-4.2-18.7l1.67 5.17s.12 0 .13-.08a30.09 30.09 0 0 1 3.93-7.46l.28-.38a27.07 27.07 0 0 0 3.58-5.42c.6-1.4 1.53-4.38 1.6-4.66h-.08a.24.24 0 0 0-.15 0 22.29 22.29 0 0 1-3.61 4A13.5 13.5 0 0 0 187.3 31c-.1.22-.24.53-.37.85l-.64 1.66c0 .02-.1.14-.15 0s.18-2.54.2-2.87a32.62 32.62 0 0 0-.54-5.9 18.46 18.46 0 0 1 .12-7.42c0-.2.1-.4.15-.6l.13-.4a.21.21 0 0 0-.07-.16c-2.6 3.16-4.07 8.94-3.44 13.4a52.55 52.55 0 0 0 1.47 5.58m3.54-14.47l.13 4.8v1.57h.1a33.68 33.68 0 0 1 4.71-4.89l4-3.4a12.59 12.59 0 0 0 3.08-6v-.3c0-.05-.14 0-.16 0l-.53.7a12.26 12.26 0 0 1-3.51 3.15 18 18 0 0 0-5.37 4.45c-.06.1-.18.06-.15-.06l.87-3.3c.46-1.92.67-4.45 1.4-6.13a8.3 8.3 0 0 1 1.94-2.79.32.32 0 0 0 0-.18 2.14 2.14 0 0 0-.47.18 11.17 11.17 0 0 0-5.26 5.74 11.74 11.74 0 0 0-.87 4.8v1.65M193 16l4.3-3.57a21.27 21.27 0 0 0 3.47-4.27 23 23 0 0 1 3.67-4.38l.33-.28a.22.22 0 0 0 0-.17 18 18 0 0 0-6.94 3.36c-3.56 2.82-4.8 8.52-4.93 9.3m40.3 31.06c.28-.42-.42-.68-.6.05s.32.37.6-.05m7.6-17.6c-.28-.14-1.4 1.22-1.2 1.44a5.25 5.25 0 0 0 1.21-1.44m.2-.24c.17.1.9-.3.77-.42s-1-.5-1-.26.1.6.25.68m13.44 12.42c.37-.08.32-.68 0-.67s-.72.52-.62.53c.25 0 .45.2.65.14m-4.9-13.32c-.3 0-.38.34-.1.48a1 1 0 0 0 .73-.11c.2-.12.43-.28.4-.6s-.46-.7-.23-.9.5.13.73 0 .26-.28.27-.52-.12-.8-.52-.8-.8.8-.84.84a.94.94 0 0 0 0 .67c.18.4.1.9-.45.9"/><path d="M256.16 28.37c0 .2.52 1.46.57 1.8s.17 1.38.45 1.28.15-.7.12-1a13.17 13.17 0 0 0-.53-2.15c-.14-.44-.75-1.85-1-1.8s.3 1 .38 1.35 0 .3 0 .47m-3.47-16.92c.33.13.33-.48-.23-.93s-1.28-.23-1.08 0a6 6 0 0 0 1.31.94M237.7 7.1c-.66-.42-.1-1-.63-1.4a1.68 1.68 0 0 0-1.65.32c-.44.57.57.38.94.55s1.28.93 1.44.78 0-.2-.1-.26m3.97-2c-.88-.4-4.18-.4-4.1.48s1.9 0 2.4 0 2.5-.08 1.7-.48m-9.1 38.6c-.16-.08-.53.07-.57-.1s-.33-.13-.26 0-.1.3.06.5a.66.66 0 0 0 .82 0 .31.31 0 0 0-.05-.42M230.72 37c.27 0 .26-.2.42-.2s0 .2.3.2.57-.7-.32-.7c-.72 0-.62.7-.4.7m1.14.76c-.55-.14-.44.17-.77.2-.56.06-.07-.4-.34-.63-.12-.1-.45.38-.47.68 0 .15 0 .63.2.65l1.9.25c.42.1 0-1-.53-1.16m-6.1 6.6c.17 0 .3-.6.2-.9s-.65-.07-.7.06.34.83.5.83m-8-.04c0-.25 0-1-.18-1.15s-.15.13-.28.1-.1-.36-.22-.36 0 .6.18 1 .47.92.5.45m-.2-1.88a8.11 8.11 0 0 0 .27-1.82c0-.48-.3-.93-.36-.9s0 .33.05.8a6.23 6.23 0 0 1-.3 1.5c0 .2.2.7.34.42"/><path d="M207.27 64.92a38 38 0 0 0 53.78-53.79A38 38 0 0 0 196.14 38a37.78 37.78 0 0 0 11.13 26.9m-9.5-26.08h5.82a30.44 30.44 0 0 0 1.5 8.68 3.27 3.27 0 0 1-.92-.36c-.37-.2-.66.07-.83.06-.37 0-.92-.3-.92 0s.44.14.4.3-1.05.17-1.1-.22-.27-.75-.35-.3-.5.37-.68.52a.64.64 0 0 0-.19.52c0 .2-.53.06-.5.43s.32.4.4.73.36.53.2.64-.14-.12-.28 0 .92 3.14 1.15 3-.3-1-.28-1.4.08-.53.37-.66 1.12 1.2 1.4 1-.08-.42.17-.52 1.22 1.34 1.5.9c.18-.27.36.18.44.33.27.5.8.52 1.15 1.06s1 1.74 1.5 1.67.22-.47.4-.47.35.65.7 1.1a2.15 2.15 0 0 0 .87.58 31 31 0 0 0 2.28 2.7l-4.13 4.14a36.18 36.18 0 0 1-10.08-24.35m33.13-8.4l-.43.2a7.54 7.54 0 0 0-1.54 1l-4.12-4.12a14 14 0 0 1 8.54-3.56v5.83a8.25 8.25 0 0 0-2.09.48c.2-.37.63-.75.6-.8s-.67.46-.95 1m-3.08 9.5v.2a.41.41 0 0 1 0 .11 1.06 1.06 0 0 0-.17-.47.53.53 0 0 0-.29-.21.52.52 0 0 0-.33 0h-.17l-.2.08h-1.5c-.2 0-.32 0-.33-.1-.1-.44.45-.06.92-1.3a4 4 0 0 1 .19-.41l.1-.15.1-.12.1-.1a.67.67 0 0 1 .59-.21h.3l.05.06.08.1.12.12a1.88 1.88 0 0 0 .23.16 1.09 1.09 0 0 1 .41.32.47.47 0 0 1 .07.12l.06.1a.33.33 0 0 0 .23.14h.1a.69.69 0 0 0 .2 0h.1c.17-.06.25 0 .28 0a.19.19 0 0 1 0 .08 1.36 1.36 0 0 1-.06.2.86.86 0 0 1-.13.2.39.39 0 0 1-.36.17c-.17 0-.36-.1-.5-.12a.21.21 0 0 0-.21.07v.06a.14.14 0 0 0 0 .06v.1a.5.5 0 0 0 0 .12V40m-11 9.63a3.69 3.69 0 0 1-.13-1.72 3.79 3.79 0 0 0-.52-1.7 2.83 2.83 0 0 1-.21-1.18c0-.73-.6-.46-.6-.67s.45 0 .52-.17-.63-1-1.06-1.25-.3-.48-.26-.77a1.59 1.59 0 0 0-.16-.83c-.14-.43 0-1.07.5-1.14.22 0 .56.15.8 0s.12-.85.1-1.28h2.75c0 .44.06.9.12 1.33-.18.14-.3.3-.22.43a.25.25 0 0 0 .31.11 15.68 15.68 0 0 0 3.81 7.82l-4.13 4.12q-.48-.52-.93-1.08a1.3 1.3 0 0 0 0-.34c0-.65-.45-1.1-.7-1.65m-3.63-7a21.49 21.49 0 0 1-.48-3.76h2.45c-.15.34-.67.63-.76.86s-.64 1.32-.3 1.7c.8.93-.33 1.4-.9 1.2m.46 14.84l-.47.46-.68-.74h.06c.25-.14.65 0 1.1.3m6.2-25.72a.68.68 0 0 0-.18.13c-.3.28-1.06.25-1 .53s2.16-.66 2.24-.45-.93.47-1.53.75-.83.76-1.77.77c-.44 0-.68.38-.9.73a6.13 6.13 0 0 0-.65 1.21 5.15 5.15 0 0 1-.48 1.82h-2.9a21.47 21.47 0 0 1 5.73-13.81l4.12 4.12a15.78 15.78 0 0 0-2.72 4.2m3.87-3l3.6 3.6a2.49 2.49 0 0 1-.37 0c-.36-.05-.42-.3-.67-.27-.6.1-.66.27-.8.18a7.76 7.76 0 0 0-1.45-1 2.56 2.56 0 0 0-2 .16l-.17.08a14.08 14.08 0 0 1 1.89-2.7M218.6 36l-.1 1.17h-2.1a1.23 1.23 0 0 1 .16-.87 1.21 1.21 0 0 1 1.17-.54 2.53 2.53 0 0 1 .86.24m1.76 4.67l.26.28c.16.15.38.38.6.27s.67 0 .76.05a1.82 1.82 0 0 1 .72.54c.2.28.6.08.88.3s.6.43.25.57.38.58.52.56.2-.16.15-.47c0-.12.16-.54.54-.42s1.16 1.18 1.5.84.15-.88.23-1.06a2.22 2.22 0 0 1 .15-.23 7.78 7.78 0 0 0 .88 1.32l-4.12 4.13a14 14 0 0 1-3.31-6.67m3.3-14.34l-4.12-4.1a21.36 21.36 0 0 1 13.81-5.73v5.82a15.62 15.62 0 0 0-9.69 4m-5.27-5.26l-4.1-4.05a28.87 28.87 0 0 1 19.07-7.91v5.8a23 23 0 0 0-15 6.21m-1.15 1.15a23 23 0 0 0-6.2 15h-5.82a28.82 28.82 0 0 1 7.91-19.07zM211 38.84a25.11 25.11 0 0 0 .32 3.14c-.15 0-.14-.26-.43-.25s-1.44 2-1.88 2.77c-.36.66.17 2.24-.4 2.68a3.51 3.51 0 0 1-1.75.29h-.1a28.79 28.79 0 0 1-1.57-8.64zm22.3 35.57A36.11 36.11 0 0 1 209 64.33l4.13-4.13a30.45 30.45 0 0 0 20.22 8.39zm0-7.44a28.88 28.88 0 0 1-19.07-7.92l.65-.65a3 3 0 0 0 .47.28 2.12 2.12 0 0 0 1.38.15c.43-.07 1.17-.82 1.67-.82s1.27.22 1.77-.1-.34-1.32-.6-1.78a2.74 2.74 0 0 0-.23-.31 23 23 0 0 0 14 5.32zm0-7.45a21.34 21.34 0 0 1-13.82-5.72l4.13-4.12a15.62 15.62 0 0 0 6.76 3.58c-.88.43-1.35 1-1.17 1.53s-.62.8-.62 1.42.8 1 1 1.56c.08.33.8.75 1.42 1.17a6.15 6.15 0 0 0 2.35.16zm-.25-8c-.3-.24-.48.2-.88.44a14 14 0 0 1-7.41-3.44l4.12-4.12a8.2 8.2 0 0 0 4.41 1.84c0 .23.15.43.2.78 0 .18-.3.6-.2.8s1 0 1.07-.27-.25-.47-.4-.77a2.77 2.77 0 0 1-.17-.51h.35a6.84 6.84 0 0 0 .91-.06.26.26 0 0 0 .21-.18 2.26 2.26 0 0 1 .11-.28l.1-.15.05-.06h.05a.19.19 0 0 1 .07.08c.14.23.27.8.56.68s.35-1 .2-1.25a.9.9 0 0 1 0-.89c0-.12.08-.73.3-.6s0 .6 0 .75c0 .3.17.7.52.53.16-.07.43-.44.62-.3s-.52.32-.55.5.26.32.16.43-.18 0-.27.07.25.72 0 .8-.88.32-1.07.4-.37-.1-.27-.22-.08-.5-.22-.5-.2.13-.23.3.24.45.2.6-.35.15-.5.27-.46.65-.76.85-.88.25-.88.36.3.25.36.34c.25.28.35.72-.06.9s-.85-.32-1.13-.15-.35.6-.4 1.16 1.1.76 1.65.48c.37-.18.35-.85.72-1s.35-.57.68-.5.3-.3.7-.3.43.27.94.4c.8.2.77.82.93.47s.23-.5-.45-.65-.85-.9-.38-.65 1.12.28 1.24.63.75.24.8.54c.1.45.47 0 .23-.28s-.25-.4 0-.62.3.1.6-.28-.14-.3-.17-.5.06-1.3.36-1.1.75-.1.62-.23.07-.7.18-.66 0 .38.12.5 1.12-.3 1.2.15-.72.75-.87.75c-.38 0-.7.38-1 .75s-.65.53-.38.9.6.3 1 .1.7-.54.93-.64c.44-.2.66 1 .53 1.25s-.58.3-.8.48a4.21 4.21 0 0 1-1.9.6c-.4.08-.4.23-.5.56s-1.9.1-2.35.06.27-.9-.34-.85-1.2.24-1.83.34c-.4.07-1 .58-1.5.2m5.3 9.24a2.91 2.91 0 0 1 1.31 1.05c.33.5.44.68.16 1.15-.53.86-.27 1.45.7 1.8.56.2.77.82 1.23 1.2A29.12 29.12 0 0 1 235 67v-5.85a22.92 22.92 0 0 0 3.44-.39M235 59.52v-.74c1.32-.2 1 .56 1.95.3a.94.94 0 0 1 .85.15 23.5 23.5 0 0 1-2.8.29m0 14.9V68.6a30.24 30.24 0 0 0 8.84-1.59.62.62 0 0 0 .34.11 2.61 2.61 0 0 0 1.08-.36 14.35 14.35 0 0 0 2.74-1.46 30.9 30.9 0 0 0 7.19-5.09l4.13 4.13A36.1 36.1 0 0 1 235 74.41m16.2-52.24l1.4-1.4a2.21 2.21 0 0 0 1.37.75c.5.07.68.28.76.77s.64.73 1.1.83.78.65 1.2.72 1.67 1.78 2.15 2.38c.27.32.74.8 1 .42s.35-.26.46-.35a29 29 0 0 1 2.46 10.92h-5.82a22.6 22.6 0 0 0-.46-3.88 2.54 2.54 0 0 0 .28-1.27c0-.43-.37-.57-.67-.3a21.28 21.28 0 0 0-.77-2.25 9.1 9.1 0 0 0-.33-1.32c0-.14-.2-.25-.4-.35l-.54-1c.3-.25.38-.72 0-.65-.6.1-.2-.32-.4-.55s-.2 0-.28.07a23.41 23.41 0 0 0-2.58-3.36.1.1 0 0 0 .05-.06.25.25 0 0 0 0-.08m3.54 33.94a8.56 8.56 0 0 1-.48-1.3c-.06-.36-.86-.4-.88-.2a3.48 3.48 0 0 1-.13 1.18v.1l-2.1-2.1a23.07 23.07 0 0 0 6.2-14.95h5.82a28.82 28.82 0 0 1-7.91 19.07l-.32-.32a2.32 2.32 0 0 0-.16-1.48m-4.8 4l1.16-1.93c.25-.56-.83-1.25-1.45-1.44s-.65-.55-.57-1l.88-.78 4.04 4.06a28.48 28.48 0 0 1-4.38 3.42c-.14-.22.64-.88.8-1.25s-.8-.65-.54-1.1m2.5-23.87c-.5-.7.2-.75.88-1.08.4-.18.86.07.94-.14s.25-.6.44-.7a1.34 1.34 0 0 0 .6-.46c0 .2.08.4.1.6a4.24 4.24 0 0 0-.31 1.1c0 .3 0 .7.35 0l.1-.2.15 1.84h-4.3a.25.25 0 0 0 0-.07c.23-.57 1.3-.45 1-.9m.8-8.23l-.08.1c-.12.1-.63-.66-.6-.1s.2.8.6.94.2.34.47.43a1 1 0 0 1 .39.25 19.91 19.91 0 0 1 1.1 3.35 1.27 1.27 0 0 0-.42.31c-.18.24-.14.62-.3.86-.35.52-.45.8-1.2.56-.5-.17-.06-.8 0-1.3s.34-.43.34-.65-1-1.4-1.5-1-.45.85-.75 1.24c-.17.2-.38.22-.7 0s-.38-.4-.3-.6-.74-1.13-1-1.52a2.43 2.43 0 0 0-1.57-.81 15.33 15.33 0 0 0-1.88-2.56l4.12-4.12A21.75 21.75 0 0 1 253.2 28m-6.94 2.84l-.23.32c-.04.06-.57-.23-.73-.07s.7 1.1-.13.84-.28-.34-.27-.57-.74-.52-.33-.67 0-.46.36-.58.33-.54-.24-.65-.38 1.06-.74.9a3.57 3.57 0 0 0-.87-.11l1.36-1.37a1.24 1.24 0 0 0 .5.1 14.51 14.51 0 0 1 1.32 1.86m-1.55 20.23a13.31 13.31 0 0 1 1.89.44c.4.2.72.6 1 .1a7.56 7.56 0 0 0 1.23-3c.23-1.5-.08-2-.3-2.05s-.6.4-1 .43-.2.44-.18.7-.42.57-.54.42-.36-.17-.22.07-.8.14-1.2-.08c-.56-.3.67-.32 1.33-.78a10.4 10.4 0 0 0 1.46-1.43c.28-.46.33-1.12.76-1.48s1.34-.32 1.37-.86.22-.45.52-.36 3.1-.1 3.06-1c0-.42-.65-.92-1.25-1-.38 0-.5-.76-.73-1.22a8.44 8.44 0 0 0-.7-1.15h4.43a21.42 21.42 0 0 1-5.73 13.8l-.06-.06v-.37c.08-.8-.5-2.1-.7-1.93s-.05.24-.64 1.08c-.22.32-.47.84-.85.86s-.43-.26-1-.15a3.36 3.36 0 0 1-1.6 0 12.28 12.28 0 0 1-2.66-1.27c.1-.1.38.13.37-.15s1.6.38 1.9.48m15.76 12.1l-4.13-4.14a30.44 30.44 0 0 0 8.39-20.21h5.82a36.13 36.13 0 0 1-10.08 24.35m10.08-26h-5.82a30.78 30.78 0 0 0-3-12.35l.1-.1c.45-.43-1.9-3.35-2.27-3.72l-1.27-1.26a14.86 14.86 0 0 1-2.18-2.62l4.3-4.3a36.13 36.13 0 0 1 10.08 24.35M235 1.64a36.09 36.09 0 0 1 24.35 10.07l-4 4c-.25-.15-.45-.2-.32-.38.26-.33-.26-.27-.44-1.1a3.5 3.5 0 0 0-1.59-1.87c-.5-.28-.84-.66-1.3-.92s-1.5-.83-2-.6a4.26 4.26 0 0 1-1 .23A30.42 30.42 0 0 0 235 7.45zm0 7.44a28.94 28.94 0 0 1 12.26 3.08 4.49 4.49 0 0 0 .83 1.78 9.77 9.77 0 0 0 .83 1.35c.3.34.1.9.24 1.4.06.22.24.4.26.62a6.61 6.61 0 0 0 0 .77c0 .15.38.08.66-.15s.52-.56.92-.47.93.85 1.22 1.42l-1.94 1.93c-.23-.44-.36-.85-.27-.93s.3.12.4.13c.38 0-.28-.34-.33-.38-.32-.27-.34-.7-.72-1s-1-.14-1.18-.45a5.71 5.71 0 0 0-1.58-1.78c-.06 0 .78 1.14.53 1.34s-1.4-.8-1.53-.57 1.2.7 1.56 1.07c.2.2.62.78 1 1.33A23 23 0 0 0 235 14.9zm0 7.45a21.41 21.41 0 0 1 13.81 5.72l-4.12 4.12a15.62 15.62 0 0 0-9.69-4zm0 7.47a14 14 0 0 1 8.54 3.54l-.23.23-.2-.08c-.48-.18-1.54.76-1.28.92s.6-.37.83-.34h.14l-1.82 1.8c-.53.23-1 .6-1 .93v.06l-.56.56-.32-.26a8.4 8.4 0 0 0-1.62-.93 1.17 1.17 0 0 0 .45-.88c0-.62-.2-.36-.53-.13s-.63.36-.77.7a7.48 7.48 0 0 0-1.63-.33zm-.68 7.42a.36.36 0 0 1-.13.48c-.22.17-.75-.5-.93.06s.36.3.45.44a2.18 2.18 0 0 0 1.22.72c.38 0 1 0 1 .44 0 .2.54.17.56.37 0 .35.3.77.54.72a.46.46 0 0 1 .48.75c-.26.32.3.2.4.85s-.46.15-.6.6a2.32 2.32 0 0 1-.63.75c-.12.1.1.3.25.2s.33-.42.56-.36.56 1.1.88 1.25.24.5.27.63-.47 0-.42.17.66.34.65.6a.71.71 0 0 1-.65.58c-.27 0-.8-.68-.8-.53s.24.8.5.75 1-.3.74.07-.18 1-.37 1-.3 0-.1.28a.84.84 0 0 1-.22.78c-.16.18-.65 0-.67-.14s.65-.08.64-.4-.33-.37-.86-.2c-.27.1-.4-.08-.6-.1s-.76.66-.84.8a1.51 1.51 0 0 0-.09.6 2 2 0 0 1-.35 1 6.23 6.23 0 0 1-1.06.09A6.61 6.61 0 0 1 229.8 43a1.33 1.33 0 0 1 .82-.18c.32.08.36-.1.57-.16s.7.25 1 0 1-1.5.92-1.76.73-.75.58-.9-.18.06-.23 0 .23-.1 0-.48-.5-.15-.65-.25c-.35-.22-.8-.32-.9-.2s-.4-.17-.53-.13a.5.5 0 0 0-.33.28c-.1.16.14.36.1.55-.08.37-.7.73-.73 1s-.28.06-.38.24 0 .33-.22.33-.52.54-.74.92a6.44 6.44 0 0 1-.86-1.33c.17-.08.36-.25.55-.13.34.22 1.5-1.88 1.3-2.46s-.5-.16-.75-.06-.36-.16-.17-.28 1.4-.1.72-.54c-.27-.18-1.13-.22-1.05-.47s.45 0 .58 0c.52.18.8-.76 1.13-.78.54 0 .35-1-.15-.74s-.7.2-.93.46-.7.68-.7.27c0-.17 1.12-.83 1.36-1.1a2.32 2.32 0 0 0 .46-.77c.13-.32 1.53-.5 1.8-.67a1.38 1.38 0 0 0 .44-.85c0-.27-.42-.2-.46-.38s.53 0 .5-.33-.56 0-.72-.2c0-.07 0-.15.1-.24a6.93 6.93 0 0 1 2-.3h.13m-.94-29.76v5.8a30.49 30.49 0 0 0-20.22 8.39L209 11.7a36.09 36.09 0 0 1 24.35-10.07m-25.5 11.22L212 17a30.49 30.49 0 0 0-8.39 20.22h-5.82a36.18 36.18 0 0 1 10.08-24.35"/></g></g></svg>