<svg xmlns="http://www.w3.org/2000/svg" xmlns:xlink="http://www.w3.org/1999/xlink"><symbol viewBox="0 0 257 300" id="bars" xmlns="http://www.w3.org/2000/svg"><path d="M257.143 225v21.429c0 5.859-4.855 10.714-10.714 10.714H10.715c-5.859 0-10.714-4.855-10.714-10.714V225c0-5.859 4.855-10.714 10.714-10.714h235.714c5.859 0 10.714 4.855 10.714 10.714zm0-85.714v21.429c0 5.859-4.855 10.714-10.714 10.714H10.715c-5.859 0-10.714-4.855-10.714-10.714v-21.429c0-5.859 4.855-10.714 10.714-10.714h235.714c5.859 0 10.714 4.855 10.714 10.714zm0-85.715V75c0 5.859-4.855 10.714-10.714 10.714H10.715C4.856 85.714.001 80.859.001 75V53.571c0-5.859 4.855-10.714 10.714-10.714h235.714c5.859 0 10.714 4.855 10.714 10.714z"/></symbol><symbol viewBox="0 0 60 52.5" id="disarmament" xmlns="http://www.w3.org/2000/svg"><g data-name="Layer 2"><g data-name="Layer 1"><g data-name="Group 680"><path data-name="Path 475" d="M25.52.24L31.82 5l8.7 6.64a8.87 8.87 0 011.19 1.1q4.29 4.96 8.56 9.91c.18.2.34.41.58.71l-22.19 2.1z" fill="#068dfc"/><path data-name="Path 476" d="M27.13 25.22L0 5.58 24.07 0z" fill="#00adef"/><path data-name="Path 477" d="M27.85 27.66l4.39 6.79L36 40.21c.18.28.31.49.06.84q-4 5.63-8 11.27c-.07.06-.14.13-.21.18z" fill="#00adef"/><path data-name="Path 478" d="M34.7 36l-5.87-9.13 21.32-2 .06.16z" fill="#dadede"/><path data-name="Path 479" d="M52.05 23l-9.42-10.88 11.84-7c-.81 6-1.6 11.88-2.42 17.88z" fill="#00adef"/><path data-name="Path 480" d="M55.74 5.18L60 9.29l-5.07 1.54z" fill="#dadede"/></g></g></g></symbol><symbol viewBox="0 0 60 52.5" id="disarmament~hover" xmlns="http://www.w3.org/2000/svg"><g data-name="Layer 2"><g data-name="Layer 1"><path data-name="Path 475" d="M25.52.24L31.82 5l8.7 6.64a8.87 8.87 0 011.19 1.1q4.29 4.96 8.56 9.91c.18.2.34.41.58.71l-22.19 2.1z" fill="#dadede"/><path data-name="Path 476" d="M27.13 25.22L0 5.58 24.07 0z" fill="#f2f2f2"/><path data-name="Path 477" d="M27.85 27.66l4.39 6.79L36 40.21c.18.28.31.49.06.84q-4 5.63-8 11.27c-.07.06-.14.13-.21.18z" fill="#f2f2f2"/><path data-name="Path 478" d="M34.7 36l-5.87-9.13 21.32-2 .06.16z" fill="#fff"/><path data-name="Path 479" d="M52.05 23l-9.42-10.88 11.84-7c-.81 6-1.6 11.88-2.42 17.88z" fill="#f2f2f2"/><path data-name="Path 480" d="M55.74 5.18L60 9.29l-5.07 1.54z" fill="#fff"/></g></g></symbol><symbol viewBox="0 0 61.8 60.172" id="entry-1" xmlns="http://www.w3.org/2000/svg"><g data-name="Group 200"><g data-name="Group 199" fill="none" stroke="#00adef" stroke-miterlimit="10" stroke-width="1.8"><g data-name="Group 196"><path data-name="Path 562" d="M14.298 37.535a3.454 3.454 0 11-3.454-3.454 3.454 3.454 0 013.454 3.454z"/><path data-name="Line 48" d="M10.844 43.979v5.932"/><path data-name="Line 49" d="M16.374 59.271v-8.27"/><path data-name="Line 50" d="M5.314 51.001v8.27"/><path data-name="Path 563" d="M.9 59.271V48.585c0-2.544 1.36-4.606 3.9-4.606h12.081"/><path data-name="Path 564" d="M16.885 43.979h0c2.543 0 3.9 2.062 3.9 4.606v5.913"/></g><g data-name="Group 197"><path data-name="Path 565" d="M34.354 37.535a3.454 3.454 0 11-3.454-3.454 3.454 3.454 0 013.454 3.454z"/><path data-name="Line 51" d="M30.9 43.979v5.932"/><path data-name="Line 52" d="M36.43 59.271v-8.27"/><path data-name="Line 53" d="M25.369 51.001v8.27"/><path data-name="Path 566" d="M20.956 54.498v-5.913c0-2.544 1.36-4.606 3.9-4.606h12.082"/><path data-name="Path 567" d="M36.94 43.979h0c2.543 0 3.9 2.062 3.9 4.606v5.913"/></g><g data-name="Group 198"><path data-name="Path 568" d="M54.41 37.535a3.454 3.454 0 11-3.454-3.454 3.454 3.454 0 013.454 3.454z"/><path data-name="Line 54" d="M50.956 43.979v5.932"/><path data-name="Line 55" d="M56.486 59.271v-8.27"/><path data-name="Line 56" d="M45.425 51.001v8.27"/><path data-name="Path 569" d="M41.012 54.498v-5.913c0-2.544 1.36-4.606 3.9-4.606h12.082"/><path data-name="Path 570" d="M56.997 43.979h0c2.543 0 3.9 2.062 3.9 4.606v10.686"/></g><path data-name="Rectangle 1530" stroke-linecap="round" d="M9.995 4.599h41.809v21.465H9.995z"/><path data-name="Path 571" d="M52.296 4.6H9.503a1.716 1.716 0 01-1.537-1.85h0A1.716 1.716 0 019.503.9h42.793a1.716 1.716 0 011.537 1.85h0a1.716 1.716 0 01-1.537 1.85z" stroke-linecap="round"/><path data-name="Line 57" stroke-linecap="round" d="M32.52 26.216v3.819"/><path data-name="Line 58" stroke-linecap="round" d="M29.28 30.035v-3.819"/><path data-name="Line 59" stroke-linecap="round" d="M5.314 59.272h51.173"/><path data-name="Path 572" d="M17.369 19.686l7.433-5.7 3.519 3.581 5.966-4.664 2.943 3.043 7.2-5.391" stroke-linecap="round"/></g></g></symbol><symbol viewBox="0 0 61.8 61.832" id="entry-2" xmlns="http://www.w3.org/2000/svg"><g data-name="Group 201" fill="none" stroke="#00adef" stroke-linecap="round" stroke-linejoin="round" stroke-width="1.8"><path data-name="Line 60" d="M.9 30.9h59.991"/><path data-name="Line 61" d="M30.896.904v31.045"/><path data-name="Path 573" d="M.9 31.95C.9 14.82 14.331.901 30.9.901s30 13.966 30 31.1"/><path data-name="Path 574" d="M31.272.9S14.646 7.538 14.646 31.917"/><path data-name="Path 576" d="M30.528.9s16.627 6.638 16.627 31.017"/><path data-name="Path 578" d="M31.438 18.611c-17.127 0-21.564-8.984-21.564-8.984"/><path data-name="Path 579" d="M51.927 9.627s-4.437 8.984-21.564 8.984"/><path data-name="Line 62" d="M30.905 60.927V29.882"/><path data-name="Path 581" d="M60.9 29.915c0 17.13-13.431 31.017-30 31.017S.9 47.045.9 29.915"/><path data-name="Path 582" d="M30.528 60.932s16.627-6.638 16.627-31.017"/><path data-name="Path 584" d="M31.272 60.932s-16.626-6.638-16.626-31.017"/><path data-name="Path 586" d="M51.927 52.204s-4.433-8.984-21.564-8.984"/><path data-name="Path 587" d="M9.874 52.204s4.437-8.984 21.564-8.984"/></g></symbol><symbol viewBox="0 0 61.8 50.514" id="entry-3" xmlns="http://www.w3.org/2000/svg"><g data-name="Group 204"><g data-name="Group 203"><g data-name="Group 202" fill="none" stroke="#00adef" stroke-linecap="round" stroke-miterlimit="10" stroke-width="1.8"><path data-name="Line 63" d="M53.225 7.792H30.014"/><path data-name="Line 64" d="M30.014 13.399h23.211"/><path data-name="Line 65" d="M30.014 18.583h23.211"/><path data-name="Line 66" d="M8.576 30.619h23.211"/><path data-name="Line 67" d="M8.576 35.803h23.211"/><path data-name="Path 589" d="M22.338 2.339v20.673a1.439 1.439 0 001.439 1.439h31.617a1.438 1.438 0 011.019.422l4.488 4.5V2.339A1.439 1.439 0 0059.462.9H23.778a1.439 1.439 0 00-1.44 1.439z"/><path data-name="Path 590" d="M39.461 27.196v14.788a1.439 1.439 0 01-1.439 1.439H6.405a1.439 1.439 0 00-1.019.423l-4.488 4.5V21.307a1.439 1.439 0 011.439-1.439h16.524"/></g></g></g></symbol><symbol viewBox="0 0 60.711 60.9" id="entry-4" xmlns="http://www.w3.org/2000/svg"><g data-name="Group 205" fill="none" stroke="#00adef" stroke-miterlimit="10" stroke-width="1.8"><path data-name="Path 591" d="M20.891 12.466a3.748 3.748 0 11-3.748-3.748 3.748 3.748 0 013.748 3.748z"/><path data-name="Path 592" d="M11.104 27.899v8.974h12v-8.974"/><path data-name="Path 593" d="M5.98 36.74v-11.6c0-2.76 1.476-5 4.235-5h13.11"/><path data-name="Path 594" d="M23.971 20.147h0c2.76 0 4.235 2.237 4.235 5v11.6"/><path data-name="Path 595" d="M9.016 47.772H5.984l-2.488-6.1a.5.5 0 01.465-.692h25.627a.5.5 0 01.465.692l-2.488 6.1h-3.032"/><path data-name="Path 596" d="M24.53 60.9V45.726a.34.34 0 00-.34-.34H9.355a.341.341 0 00-.34.34v15.175"/><path data-name="Path 597" d="M3.457 16.214V4.747h53.8V35.27H33.42" stroke-linecap="round"/><path data-name="Path 598" d="M57.839 4.746H2.874A1.949 1.949 0 01.9 2.823h0A1.949 1.949 0 012.874.9h54.965a1.949 1.949 0 011.974 1.923h0a1.949 1.949 0 01-1.974 1.923z" stroke-linecap="round"/><path data-name="Path 599" d="M34.547 24.368l4.033-3.9 5.325 4.878 9.317-9.531" stroke-linecap="round"/></g></symbol><symbol viewBox="0 0 62.19 61.955" id="entry-5" xmlns="http://www.w3.org/2000/svg"><g data-name="Group 206" transform="translate(-1184.218 -506.305)" fill="none" stroke="#00adef" stroke-linecap="round" stroke-miterlimit="10" stroke-width="1.8"><circle data-name="Ellipse 1" cx="22.48" cy="22.48" r="22.48" transform="rotate(-10.954 3282.884 -5922.82)"/><path data-name="Path 600" d="M1212.214 560.038a25.738 25.738 0 0025.738-25.738"/><path data-name="Path 601" d="M1232.393 550.274l12.009 12.009a2.974 2.974 0 010 4.206h0a2.974 2.974 0 01-4.206 0l-12.009-12.009"/></g></symbol><symbol viewBox="0 0 65 37.17" id="environment" xmlns="http://www.w3.org/2000/svg"><g data-name="Layer 2"><g data-name="Layer 1"><g data-name="Group 685"><path data-name="Path 529" d="M32.5 0L21.73 15.69l14.74 21.48h.59l10.48-15.26z" fill="#00adef"/><path data-name="Path 530" fill="#dadede" d="M51 16.82l-3.49 5.09L58 37.17h7z"/><path data-name="Path 531" fill="#068dfc" d="M37.06 37.17H58L47.54 21.91z"/><path data-name="Path 532" fill="#068dfc" d="M18.24 10.6L0 37.17h7l14.73-21.48z"/><path data-name="Path 533" fill="#dadede" d="M7 37.17h29.47L21.73 15.7z"/></g></g></g></symbol><symbol viewBox="0 0 65 37.17" id="environment~hover" xmlns="http://www.w3.org/2000/svg"><g data-name="Layer 2"><g data-name="Layer 1"><path data-name="Path 529" fill="#f2f2f2" d="M32.5 0L21.73 15.69l14.74 21.48h.59l10.48-15.26z"/><path data-name="Path 530" fill="#fff" d="M51 16.82l-3.49 5.09L58 37.17h7z"/><path data-name="Path 531" fill="#dadede" d="M37.06 37.17H58L47.54 21.91z"/><path data-name="Path 532" fill="#dadede" d="M18.24 10.6L0 37.17h7l14.73-21.48z"/><path data-name="Path 533" fill="#fff" d="M7 37.17h29.47L21.73 15.7z"/></g></g></symbol><symbol class="aksvg-inline--fa akfa-facebook-f akfa-w-9" viewBox="0 0 264 512" id="facebook-f-brands" xmlns="http://www.w3.org/2000/svg"><path fill="currentColor" d="M76.7 512V283H0v-91h76.7v-71.7C76.7 42.4 124.3 0 193.8 0c33.3 0 61.9 2.5 70.2 3.6V85h-48.2c-37.8 0-45.1 18-45.1 44.3V192H256l-11.7 91h-73.6v229"/></symbol><symbol viewBox="0 0 43.8 60" id="gender" xmlns="http://www.w3.org/2000/svg"><g data-name="Layer 2"><g data-name="Layer 1"><path fill="#00adef" d="M30.2 14.22a.52.52 0 00-.11-.1c.32.32.63.65.92 1a11.34 11.34 0 00-.81-.9zm-1.09-1.01z"/><path d="M31.64 15.93l-.52-.67A15.22 15.22 0 0121 40h.27v4a19.24 19.24 0 0013.24-30.94zM19.1 40.07h.17A15.23 15.23 0 1128.83 13l-.22-.19 2.87-2.87a19.27 19.27 0 10-14.61 34v-4a16.36 16.36 0 002.23.13z" fill="#dadede"/><path fill="#00adef" d="M19.28 40.06zM28.83 13l.28.23zm1.08.94l.18.18zm1.21 1.32a1.34 1.34 0 01-.11-.14 1.34 1.34 0 00.11.14z"/><path fill="#068dfc" d="M26.53 26.04l-.06 4.17-14.8-.18.06-4.18 14.8.19zm0-6l-.06 4.18-14.8-.19.06-4.18 14.8.19z"/><path fill="#00adef" d="M28.91 47.74h-7.67V44c-.65.06-1.3.1-2 .1a19.12 19.12 0 01-2.41-.17v3.8H9v4.37h7.89V60h4.37v-7.89h7.89v-4.37zM43.8.18L29 0l-.06 4.18 8.18.1-5.64 5.64a18.77 18.77 0 013 3.14l5-5-.08 7 4.17.07L43.8.21z"/><path fill="#068dfc" d="M29.11 13.21c.27.23.54.48.8.73l.18.18a.52.52 0 01.11.1 11.34 11.34 0 01.81.9 1.34 1.34 0 00.11.14l.52.67 2.87-2.87a18.77 18.77 0 00-3-3.14l-2.87 2.87.22.19zM20.67 40c-.45 0-.91.07-1.37.07h-.2a16.36 16.36 0 01-2.23-.18v4a19.12 19.12 0 002.41.17c.66 0 1.31 0 2-.1v-4.02L21 40z"/></g></g></symbol><symbol viewBox="0 0 43.8 60" id="gender-equality" xmlns="http://www.w3.org/2000/svg"><g data-name="Layer 2"><g data-name="Layer 1"><path fill="#00adef" d="M30.2 14.22a.52.52 0 00-.11-.1c.32.32.63.65.92 1a11.34 11.34 0 00-.81-.9zm-1.09-1.01z"/><path d="M31.64 15.93l-.52-.67A15.22 15.22 0 0121 40h.27v4a19.24 19.24 0 0013.24-30.94zM19.1 40.07h.17A15.23 15.23 0 1128.83 13l-.22-.19 2.87-2.87a19.27 19.27 0 10-14.61 34v-4a16.36 16.36 0 002.23.13z" fill="#dadede"/><path fill="#00adef" d="M19.28 40.06zM28.83 13l.28.23zm1.08.94l.18.18zm1.21 1.32a1.34 1.34 0 01-.11-.14 1.34 1.34 0 00.11.14z"/><path fill="#068dfc" d="M26.53 26.04l-.06 4.17-14.8-.18.06-4.18 14.8.19zm0-6l-.06 4.18-14.8-.19.06-4.18 14.8.19z"/><path fill="#00adef" d="M28.91 47.74h-7.67V44c-.65.06-1.3.1-2 .1a19.12 19.12 0 01-2.41-.17v3.8H9v4.37h7.89V60h4.37v-7.89h7.89v-4.37zM43.8.18L29 0l-.06 4.18 8.18.1-5.64 5.64a18.77 18.77 0 013 3.14l5-5-.08 7 4.17.07L43.8.21z"/><path fill="#068dfc" d="M29.11 13.21c.27.23.54.48.8.73l.18.18a.52.52 0 01.11.1 11.34 11.34 0 01.81.9 1.34 1.34 0 00.11.14l.52.67 2.87-2.87a18.77 18.77 0 00-3-3.14l-2.87 2.87.22.19zM20.67 40c-.45 0-.91.07-1.37.07h-.2a16.36 16.36 0 01-2.23-.18v4a19.12 19.12 0 002.41.17c.66 0 1.31 0 2-.1v-4.02L21 40z"/></g></g></symbol><symbol viewBox="0 0 43.8 60" id="gender-equality~hover" xmlns="http://www.w3.org/2000/svg"><g data-name="Layer 2"><g data-name="Layer 1"><path fill="#00adef" d="M30.2 14.22a.52.52 0 00-.11-.1c.32.32.63.65.92 1a11.34 11.34 0 00-.81-.9zm-1.09-1.01z"/><path fill="#fff" d="M31.64 15.93l-.52-.67A15.22 15.22 0 0121 40h.27v4a19.24 19.24 0 0013.24-30.94zM19.1 40.07h.17A15.23 15.23 0 1128.83 13l-.22-.19 2.87-2.87a19.27 19.27 0 10-14.61 34v-4a16.36 16.36 0 002.23.13z"/><path fill="#00adef" d="M19.28 40.06zM28.83 13l.28.23zm1.08.94l.18.18zm1.21 1.32a1.34 1.34 0 01-.11-.14 1.34 1.34 0 00.11.14z"/><path fill="#dadede" d="M26.53 26.04l-.06 4.17-14.8-.18.06-4.18 14.8.19zm0-6l-.06 4.18-14.8-.19.06-4.18 14.8.19z"/><path fill="#f2f2f2" d="M28.91 47.74h-7.67V44c-.65.06-1.3.1-2 .1a19.12 19.12 0 01-2.41-.17v3.8H9v4.37h7.89V60h4.37v-7.89h7.89v-4.37zM43.8.18L29 0l-.06 4.18 8.18.1-5.64 5.64a18.77 18.77 0 013 3.14l5-5-.08 7 4.17.07L43.8.21z"/><path fill="#dadede" d="M29.11 13.21c.27.23.54.48.8.73l.18.18a.52.52 0 01.11.1 11.34 11.34 0 01.81.9 1.34 1.34 0 00.11.14l.52.67 2.87-2.87a18.77 18.77 0 00-3-3.14l-2.87 2.87.22.19zM20.67 40c-.45 0-.91.07-1.37.07h-.2a16.36 16.36 0 01-2.23-.18v4a19.12 19.12 0 002.41.17c.66 0 1.31 0 2-.1v-4.02L21 40z"/></g></g></symbol><symbol viewBox="0 0 43.8 60" id="gender~hover" xmlns="http://www.w3.org/2000/svg"><g data-name="Layer 2"><g data-name="Layer 1"><path fill="#00adef" d="M30.2 14.22a.52.52 0 00-.11-.1c.32.32.63.65.92 1a11.34 11.34 0 00-.81-.9zm-1.09-1.01z"/><path fill="#fff" d="M31.64 15.93l-.52-.67A15.22 15.22 0 0121 40h.27v4a19.24 19.24 0 0013.24-30.94zM19.1 40.07h.17A15.23 15.23 0 1128.83 13l-.22-.19 2.87-2.87a19.27 19.27 0 10-14.61 34v-4a16.36 16.36 0 002.23.13z"/><path fill="#00adef" d="M19.28 40.06zM28.83 13l.28.23zm1.08.94l.18.18zm1.21 1.32a1.34 1.34 0 01-.11-.14 1.34 1.34 0 00.11.14z"/><path fill="#dadede" d="M26.53 26.04l-.06 4.17-14.8-.18.06-4.18 14.8.19zm0-6l-.06 4.18-14.8-.19.06-4.18 14.8.19z"/><path fill="#f2f2f2" d="M28.91 47.74h-7.67V44c-.65.06-1.3.1-2 .1a19.12 19.12 0 01-2.41-.17v3.8H9v4.37h7.89V60h4.37v-7.89h7.89v-4.37zM43.8.18L29 0l-.06 4.18 8.18.1-5.64 5.64a18.77 18.77 0 013 3.14l5-5-.08 7 4.17.07L43.8.21z"/><path fill="#dadede" d="M29.11 13.21c.27.23.54.48.8.73l.18.18a.52.52 0 01.11.1 11.34 11.34 0 01.81.9 1.34 1.34 0 00.11.14l.52.67 2.87-2.87a18.77 18.77 0 00-3-3.14l-2.87 2.87.22.19zM20.67 40c-.45 0-.91.07-1.37.07h-.2a16.36 16.36 0 01-2.23-.18v4a19.12 19.12 0 002.41.17c.66 0 1.31 0 2-.1v-4.02L21 40z"/></g></g></symbol><symbol viewBox="0 0 55 55" id="health" xmlns="http://www.w3.org/2000/svg"><g data-name="Layer 2"><g data-name="Layer 1"><path data-name="Path 926" fill="#dadede" d="M27.61 11.52c.14-.2.28-.39.44-.58C30.36 8.63 32.65 6.3 35 4a9.71 9.71 0 0110.54-2.35 8.8 8.8 0 012.57 1.44 19.57 19.57 0 014.45 4.63 9.69 9.69 0 01-1.45 12.35q-3.46 3.48-6.94 6.93c-.15.14-.32.26-.53.43.2.21.33.36.47.49l6.94 6.93A9.73 9.73 0 0154 43.79a7.94 7.94 0 01-1.43 3.55 20 20 0 01-5.59 5.36 9.72 9.72 0 01-11.28-1.17c-2.56-2.4-5-4.92-7.51-7.39-.17-.17-.32-.36-.52-.6-.19.18-.35.31-.48.45-2.37 2.36-4.72 4.74-7.11 7.08A9.69 9.69 0 019.4 53.45 7.25 7.25 0 017 52.12 21.47 21.47 0 012.19 47a9.75 9.75 0 011.19-11.37C5.89 33 8.47 30.52 11 28l.45-.46L11 27l-7-7A9.79 9.79 0 011.89 8.53 5.57 5.57 0 012.87 7a39.21 39.21 0 014.55-4.4 9.56 9.56 0 0112 .74c2.19 2 4.23 4.17 6.34 6.26.56.59 1.14 1.2 1.85 1.92zm-1 .76c-2.79-2.73-5.5-5.57-8.42-8.19a8.33 8.33 0 00-10.94.27c-1 .9-1.92 1.83-2.82 2.8a8.38 8.38 0 00-.06 11.27c2.56 2.71 5.26 5.3 7.89 8l.2.11zM12.39 28.43l-1 1c-2.33 2.37-4.76 4.67-7.04 7.11a8.39 8.39 0 00.07 11.27 29.69 29.69 0 002.7 2.68 9.69 9.69 0 002.79 1.72 8.28 8.28 0 009.17-2.08c2.39-2.36 4.77-4.74 7.15-7.11l.33-.36zm30.4-2l.09-.07c2.56-2.56 5.15-5.1 7.67-7.71a8.31 8.31 0 001.08-10 19.18 19.18 0 00-4.23-4.44 8.34 8.34 0 00-10.86.24c-2.62 2.48-5.13 5.06-7.7 7.6-.1.1-.19.22-.29.33zm-14.09 16c2.7 2.77 5.24 5.68 8.11 8.23 2.69 2.38 5.95 2.54 9.18 1a14.78 14.78 0 005-4.61 8.28 8.28 0 00-.9-11.23l-7-7-.38-.34zm-1.1-1l14-14-14-14-14.08 14z"/><path fill="#dadede" d="M13 55a10.52 10.52 0 01-3.91-.75 8.43 8.43 0 01-2.61-1.46 22.42 22.42 0 01-5-5.29 10.59 10.59 0 011.26-12.44c1.78-1.84 3.57-3.63 5.36-5.41l2.17-2.16-6.92-6.88A10.57 10.57 0 011.12 8.15a6 6 0 011.11-1.74 39.18 39.18 0 014.64-4.47A10.47 10.47 0 0120 2.71c1.55 1.42 3.05 2.94 4.5 4.4.62.63 1.24 1.26 1.87 1.88l1.21 1.24 1.69-1.73c1.7-1.71 3.4-3.42 5.13-5.1A10.52 10.52 0 0145.85.85a9.31 9.31 0 012.81 1.58 20.42 20.42 0 014.61 4.8 10.59 10.59 0 01-1.56 13.47q-3.39 3.39-6.82 6.79l6.77 6.75A10.59 10.59 0 0154.8 44a8.94 8.94 0 01-1.58 3.89 20.63 20.63 0 01-5.82 5.58 10.59 10.59 0 01-12.32-1.25c-1.8-1.67-3.54-3.42-5.23-5.11l-2.28-2.28-2.09 2.09c-1.61 1.61-3.22 3.22-4.85 4.81A10.44 10.44 0 0113 55zm-.6-25.34L12 30c-.75.75-1.49 1.49-2.24 2.22C8.2 33.83 6.54 35.46 5 37.13a7.48 7.48 0 00.08 10.1 28.27 28.27 0 002.63 2.62 9.14 9.14 0 002.54 1.57 7.47 7.47 0 008.21-1.87c1.75-1.72 3.46-3.43 5.17-5.13l1.75-1.75zM29.9 42.5c.63.65 1.24 1.3 1.86 2 1.79 1.9 3.65 3.87 5.62 5.61 2.92 2.59 6.09 1.89 8.23.85a14 14 0 004.72-4.33 7.47 7.47 0 00-.77-10.11l-6.8-6.78zm-15.15-15l12.84 12.83L40.36 27.5 27.62 14.7zM12.88 3a7.45 7.45 0 00-5.05 2c-1 1-1.94 1.86-2.78 2.76A7.5 7.5 0 005 17.86c1.78 1.87 3.66 3.74 5.49 5.55l1.92 1.9 13-13-1.92-1.91c-1.88-1.89-3.84-3.84-5.85-5.65A7.4 7.4 0 0012.88 3zm16.87 9.32l13 12.91 1.77-1.77c1.77-1.76 3.6-3.58 5.35-5.4a7.5 7.5 0 001-8.92 18.17 18.17 0 00-4-4.29 7.44 7.44 0 00-9.75.2c-1.78 1.68-3.56 3.46-5.28 5.18z"/><path data-name="Path 814" fill="#068dfc" d="M27.92 28.16L32.14 24a1.1 1.1 0 011.53-.05l.1.11a1.12 1.12 0 01.23 1.46 1.37 1.37 0 01-.23.25L25.55 34a1.1 1.1 0 01-1.54.2 1 1 0 01-.22-.23 1.05 1.05 0 01-.19-1.48l.13-.14z"/><path data-name="Path 933" fill="#068dfc" d="M22.78 23L27 18.83a1.08 1.08 0 011.53 0l.1.11a1.1 1.1 0 01.23 1.5 1.88 1.88 0 01-.22.26l-8.23 8.2a1.1 1.1 0 01-1.54.2 1.15 1.15 0 01-.22-.22 1.05 1.05 0 01-.19-1.48.86.86 0 01.13-.14z"/><path data-name="Path 931" fill="#068dfc" d="M30.49 30.72l4.21-4.21a1.09 1.09 0 011.53 0 1.14 1.14 0 01.11.11 1.11 1.11 0 01.23 1.5 2.85 2.85 0 01-.23.26l-8.22 8.2a1.1 1.1 0 01-1.54.2 1.25 1.25 0 01-.23-.23 1.05 1.05 0 01-.18-1.55.8.8 0 01.13-.13z"/><path data-name="Path 932" fill="#068dfc" d="M25.35 25.6l4.22-4.21a1.1 1.1 0 011.53-.05l.1.11a1.12 1.12 0 01.23 1.55 1.79 1.79 0 01-.23.25L23 31.42a1.1 1.1 0 01-1.54.2 1 1 0 01-.22-.23 1.05 1.05 0 01-.24-1.48.86.86 0 01.13-.14z"/></g></g></symbol><symbol viewBox="0 0 55 55" id="health~hover" xmlns="http://www.w3.org/2000/svg"><g data-name="Layer 2"><g data-name="Layer 1"><path data-name="Path 926" fill="#fff" d="M27.61 11.52c.14-.2.28-.39.44-.58C30.36 8.63 32.65 6.3 35 4a9.71 9.71 0 0110.54-2.35 8.8 8.8 0 012.57 1.44 19.57 19.57 0 014.45 4.63 9.69 9.69 0 01-1.45 12.35q-3.46 3.48-6.94 6.93c-.15.14-.32.26-.53.43.2.21.33.36.47.49l6.94 6.93A9.73 9.73 0 0154 43.79a7.94 7.94 0 01-1.43 3.55 20 20 0 01-5.59 5.36 9.72 9.72 0 01-11.28-1.17c-2.56-2.4-5-4.92-7.51-7.39-.17-.17-.32-.36-.52-.6-.19.18-.35.31-.48.45-2.37 2.36-4.72 4.74-7.11 7.08A9.69 9.69 0 019.4 53.45 7.25 7.25 0 017 52.12 21.47 21.47 0 012.19 47a9.75 9.75 0 011.19-11.37C5.89 33 8.47 30.52 11 28l.45-.46L11 27l-7-7A9.79 9.79 0 011.89 8.53 5.57 5.57 0 012.87 7a39.21 39.21 0 014.55-4.4 9.56 9.56 0 0112 .74c2.19 2 4.23 4.17 6.34 6.26.56.59 1.14 1.2 1.85 1.92zm-1 .76c-2.79-2.73-5.5-5.57-8.42-8.19a8.33 8.33 0 00-10.94.27c-1 .9-1.92 1.83-2.82 2.8a8.38 8.38 0 00-.06 11.27c2.56 2.71 5.26 5.3 7.89 8l.2.11zM12.39 28.43l-1 1c-2.33 2.37-4.76 4.67-7.04 7.11a8.39 8.39 0 00.07 11.27 29.69 29.69 0 002.7 2.68 9.69 9.69 0 002.79 1.72 8.28 8.28 0 009.17-2.08c2.39-2.36 4.77-4.74 7.15-7.11l.33-.36zm30.4-2l.09-.07c2.56-2.56 5.15-5.1 7.67-7.71a8.31 8.31 0 001.08-10 19.18 19.18 0 00-4.23-4.44 8.34 8.34 0 00-10.86.24c-2.62 2.48-5.13 5.06-7.7 7.6-.1.1-.19.22-.29.33zm-14.09 16c2.7 2.77 5.24 5.68 8.11 8.23 2.69 2.38 5.95 2.54 9.18 1a14.78 14.78 0 005-4.61 8.28 8.28 0 00-.9-11.23l-7-7-.38-.34zm-1.1-1l14-14-14-14-14.08 14z"/><path fill="#fff" d="M13 55a10.52 10.52 0 01-3.91-.75 8.43 8.43 0 01-2.61-1.46 22.42 22.42 0 01-5-5.29 10.59 10.59 0 011.26-12.44c1.78-1.84 3.57-3.63 5.36-5.41l2.17-2.16-6.92-6.88A10.57 10.57 0 011.12 8.15a6 6 0 011.11-1.74 39.18 39.18 0 014.64-4.47A10.47 10.47 0 0120 2.71c1.55 1.42 3.05 2.94 4.5 4.4.62.63 1.24 1.26 1.87 1.88l1.21 1.24 1.69-1.73c1.7-1.71 3.4-3.42 5.13-5.1A10.52 10.52 0 0145.85.85a9.31 9.31 0 012.81 1.58 20.42 20.42 0 014.61 4.8 10.59 10.59 0 01-1.56 13.47q-3.39 3.39-6.82 6.79l6.77 6.75A10.59 10.59 0 0154.8 44a8.94 8.94 0 01-1.58 3.89 20.63 20.63 0 01-5.82 5.58 10.59 10.59 0 01-12.32-1.25c-1.8-1.67-3.54-3.42-5.23-5.11l-2.28-2.28-2.09 2.09c-1.61 1.61-3.22 3.22-4.85 4.81A10.44 10.44 0 0113 55zm-.6-25.34L12 30c-.75.75-1.49 1.49-2.24 2.22C8.2 33.83 6.54 35.46 5 37.13a7.48 7.48 0 00.08 10.1 28.27 28.27 0 002.63 2.62 9.14 9.14 0 002.54 1.57 7.47 7.47 0 008.21-1.87c1.75-1.72 3.46-3.43 5.17-5.13l1.75-1.75zM29.9 42.5c.63.65 1.24 1.3 1.86 2 1.79 1.9 3.65 3.87 5.62 5.61 2.92 2.59 6.09 1.89 8.23.85a14 14 0 004.72-4.33 7.47 7.47 0 00-.77-10.11l-6.8-6.78zm-15.15-15l12.84 12.83L40.36 27.5 27.62 14.7zM12.88 3a7.45 7.45 0 00-5.05 2c-1 1-1.94 1.86-2.78 2.76A7.5 7.5 0 005 17.86c1.78 1.87 3.66 3.74 5.49 5.55l1.92 1.9 13-13-1.92-1.91c-1.88-1.89-3.84-3.84-5.85-5.65A7.4 7.4 0 0012.88 3zm16.87 9.32l13 12.91 1.77-1.77c1.77-1.76 3.6-3.58 5.35-5.4a7.5 7.5 0 001-8.92 18.17 18.17 0 00-4-4.29 7.44 7.44 0 00-9.75.2c-1.78 1.68-3.56 3.46-5.28 5.18z"/><path data-name="Path 814" fill="#dadede" d="M27.92 28.16L32.14 24a1.1 1.1 0 011.53-.05l.1.11a1.12 1.12 0 01.23 1.46 1.37 1.37 0 01-.23.25L25.55 34a1.1 1.1 0 01-1.54.2 1 1 0 01-.22-.23 1.05 1.05 0 01-.19-1.48l.13-.14z"/><path data-name="Path 933" fill="#dadede" d="M22.78 23L27 18.83a1.08 1.08 0 011.53 0l.1.11a1.1 1.1 0 01.23 1.5 1.88 1.88 0 01-.22.26l-8.23 8.2a1.1 1.1 0 01-1.54.2 1.15 1.15 0 01-.22-.22 1.05 1.05 0 01-.19-1.48.86.86 0 01.13-.14z"/><path data-name="Path 931" fill="#dadede" d="M30.49 30.72l4.21-4.21a1.09 1.09 0 011.53 0 1.14 1.14 0 01.11.11 1.11 1.11 0 01.23 1.5 2.85 2.85 0 01-.23.26l-8.22 8.2a1.1 1.1 0 01-1.54.2 1.25 1.25 0 01-.23-.23 1.05 1.05 0 01-.18-1.55.8.8 0 01.13-.13z"/><path data-name="Path 932" fill="#dadede" d="M25.35 25.6l4.22-4.21a1.1 1.1 0 011.53-.05l.1.11a1.12 1.12 0 01.23 1.55 1.79 1.79 0 01-.23.25L23 31.42a1.1 1.1 0 01-1.54.2 1 1 0 01-.22-.23 1.05 1.05 0 01-.24-1.48.86.86 0 01.13-.14z"/></g></g></symbol><symbol viewBox="0 0 60 49.46" id="human-rights" xmlns="http://www.w3.org/2000/svg"><g data-name="Layer 2"><g data-name="Layer 1"><path fill="#dadede" d="M31.79 3.21h16.76a8.88 8.88 0 00-.57 4v36.24a2.52 2.52 0 01-2.29 2.72h-.28a2.56 2.56 0 01-2.56-2.49v-1.89H13.66V6.27c0-2.06 1-3.06 3-3.06h15.13m0-.37H16.7c-2.25 0-3.41 1.17-3.41 3.43v35.92h29.19v1.49a2.94 2.94 0 002.94 2.86h.32a2.87 2.87 0 002.62-3.09V7.86c0-1.66-.17-3.33.81-5H31.79z"/><path fill="#dadede" d="M56.41.48h-.09A9 9 0 0053.2 0H16.7a7.35 7.35 0 00-2.39.33 5.77 5.77 0 00-3.9 5.79v36H1.65v1.27a5.81 5.81 0 006 6h37.5A5.79 5.79 0 0050.71 46a7 7 0 00.53-3.23V7.22A7 7 0 0156.41.48zm-8 7.32v35.59a2.87 2.87 0 01-2.62 3.09 2.94 2.94 0 01-3.26-2.84v-1.49H13.29V6.27c0-2.26 1.16-3.43 3.41-3.43h32.47c-.98 1.63-.81 3.3-.81 4.96z"/><path fill="#dadede" d="M35 .37l18.2.02a13.33 13.33 0 012 .14 7.35 7.35 0 00-4.3 6.69v35.56a6.85 6.85 0 01-.49 3.07 5.43 5.43 0 01-5.23 3.22H7.65a5.68 5.68 0 01-4-1.59 5.68 5.68 0 01-1.59-4v-.9h8.76V6.14A5.35 5.35 0 0114.44.71 6.69 6.69 0 0116.7.39L35 .37M12.91 42.56H42.1v1.13a3.26 3.26 0 001 2.29 3.3 3.3 0 002.3.93 2 2 0 00.35 0 3.25 3.25 0 003-3.46V7.16A7.27 7.27 0 0149.49 3l.34-.57H16.7a3.84 3.84 0 00-2.82 1 3.88 3.88 0 00-1 2.83v36.3M35 0H16.7a7.35 7.35 0 00-2.39.33 5.77 5.77 0 00-3.9 5.79v36H1.65v1.27a5.81 5.81 0 006 6h37.5A5.79 5.79 0 0050.71 46a7 7 0 00.53-3.23V7.22A7 7 0 0156.41.48h-.09A9 9 0 0053.2 0H35zM13.29 42.19V6.27c0-2.26 1.16-3.43 3.41-3.43h32.47c-1 1.63-.81 3.3-.81 5v35.59a2.87 2.87 0 01-2.62 3.09h-.32a2.94 2.94 0 01-2.94-2.86v-1.49z"/><path d="M60 7.22V5.47a5.41 5.41 0 00-3.57-5 7 7 0 00-5.17 6.74z" fill="#068dfc"/><path d="M45.48 46.17a2.74 2.74 0 01-2.63-2.8v-1.68H0v1.44a6.08 6.08 0 006.27 6.27h39.22a8.11 8.11 0 00.86-.05z" fill="#00adef"/></g></g></symbol><symbol viewBox="0 0 60 49.46" id="human-rights~hover" xmlns="http://www.w3.org/2000/svg"><g data-name="Layer 2"><g data-name="Layer 1"><path fill="#fff" d="M31.79 3.21h16.76a8.88 8.88 0 00-.57 4v36.24a2.52 2.52 0 01-2.29 2.72h-.28a2.56 2.56 0 01-2.56-2.49v-1.89H13.66V6.27c0-2.06 1-3.06 3-3.06h15.13m0-.37H16.7c-2.25 0-3.41 1.17-3.41 3.43v35.92h29.19v1.49a2.94 2.94 0 002.94 2.86h.32a2.87 2.87 0 002.62-3.09V7.86c0-1.66-.17-3.33.81-5H31.79z"/><path fill="#fff" d="M56.41.48h-.09A9 9 0 0053.2 0H16.7a7.35 7.35 0 00-2.39.33 5.77 5.77 0 00-3.9 5.79v36H1.65v1.27a5.81 5.81 0 006 6h37.5A5.79 5.79 0 0050.71 46a7 7 0 00.53-3.23V7.22A7 7 0 0156.41.48zm-8 7.32v35.59a2.87 2.87 0 01-2.62 3.09 2.94 2.94 0 01-3.26-2.84v-1.49H13.29V6.27c0-2.26 1.16-3.43 3.41-3.43h32.47c-.98 1.63-.81 3.3-.81 4.96z"/><path fill="#fff" d="M35 .37l18.2.02a13.33 13.33 0 012 .14 7.35 7.35 0 00-4.3 6.69v35.56a6.85 6.85 0 01-.49 3.07 5.43 5.43 0 01-5.23 3.22H7.65a5.68 5.68 0 01-4-1.59 5.68 5.68 0 01-1.59-4v-.9h8.76V6.14A5.35 5.35 0 0114.44.71 6.69 6.69 0 0116.7.39L35 .37M12.91 42.56H42.1v1.13a3.26 3.26 0 001 2.29 3.3 3.3 0 002.3.93 2 2 0 00.35 0 3.25 3.25 0 003-3.46V7.16A7.27 7.27 0 0149.49 3l.34-.57H16.7a3.84 3.84 0 00-2.82 1 3.88 3.88 0 00-1 2.83v36.3M35 0H16.7a7.35 7.35 0 00-2.39.33 5.77 5.77 0 00-3.9 5.79v36H1.65v1.27a5.81 5.81 0 006 6h37.5A5.79 5.79 0 0050.71 46a7 7 0 00.53-3.23V7.22A7 7 0 0156.41.48h-.09A9 9 0 0053.2 0H35zM13.29 42.19V6.27c0-2.26 1.16-3.43 3.41-3.43h32.47c-1 1.63-.81 3.3-.81 5v35.59a2.87 2.87 0 01-2.62 3.09h-.32a2.94 2.94 0 01-2.94-2.86v-1.49z"/><path fill="#dadede" d="M60 7.22V5.47a5.41 5.41 0 00-3.57-5 7 7 0 00-5.17 6.74z"/><path fill="#f2f2f2" d="M45.48 46.17a2.74 2.74 0 01-2.63-2.8v-1.68H0v1.44a6.08 6.08 0 006.27 6.27h39.22a8.11 8.11 0 00.86-.05z"/></g></g></symbol><symbol viewBox="0 0 60 53.15" id="humanitarian-affairs" xmlns="http://www.w3.org/2000/svg"><g data-name="Layer 2"><g data-name="Layer 1"><path d="M30 8.06l-3.81-3.81a14.52 14.52 0 00-20.53 0l-1 1a16 16 0 000 22.63L30 53.15 7.47 30.59z" fill="#dadede"/><path d="M55.31 5.23l-1-1a14.52 14.52 0 00-20.53 0L30 8.06l22.53 22.53L30 53.12l25.31-25.26a16 16 0 000-22.63z" fill="#068dfc"/><path style="mix-blend-mode:multiply" fill="#15adff" d="M7.475 30.587L30.004 8.058l22.528 22.529-22.528 22.528z"/><path fill="#00adef" d="M7.475 30.587L30.004 8.058l22.528 22.529-22.528 22.528z"/></g></g></symbol><symbol viewBox="0 0 60 53.15" id="humanitarian-affairs~hover" xmlns="http://www.w3.org/2000/svg"><g data-name="Layer 2"><g data-name="Layer 1"><path fill="#fff" d="M30 8.06l-3.81-3.81a14.52 14.52 0 00-20.53 0l-1 1a16 16 0 000 22.63L30 53.15 7.47 30.59z"/><path fill="#dadede" d="M55.31 27.86a16 16 0 000-22.63l-1-1a14.52 14.52 0 00-20.53 0L30 8.06l22.53 22.53"/><path fill="#f2f2f2" d="M7.475 30.587L30.004 8.058l22.528 22.529-22.528 22.528z"/></g></g></symbol><symbol viewBox="0 0 60 63.31" id="innovation-&amp;-technology" xmlns="http://www.w3.org/2000/svg"><g data-name="Layer 2"><g data-name="Layer 1"><g data-name="Group 689"><path data-name="Path 517" fill="#dadede" d="M9.14 19.37a4 4 0 11-4-4 4 4 0 014 4z"/><path data-name="Path 518" fill="#dadede" d="M52.36 56.57a4 4 0 11-4-4 4 4 0 014 4z"/><path data-name="Path 519" fill="#068dfc" d="M28.12 0l-9.54 13.9h19.08z"/><path data-name="Path 520" fill="#dadede" d="M60 38.33l-9.53-6.55v13.09z"/><path data-name="Path 521" fill="#dadede" d="M4 55.8l9.53 6.54V49.25z"/><path data-name="Rectangle 1500" fill="#068dfc" d="M0 34.37h7.92v7.92H0z"/><path data-name="Rectangle 1501" fill="#068dfc" d="M46.51 15.42h7.92v7.92h-7.92z"/><g data-name="Group 613" fill="#00adef"><path data-name="Path 814" d="M29 59.36h-6a1.07 1.07 0 01-.21-2.12H34.8c.83 0 1.25.38 1.24 1.1a1 1 0 01-.94 1H29z"/><path data-name="Path 815" d="M29 61.16h3.75c.75 0 1.18.39 1.19 1.06a1 1 0 01-1 1.09h-7.75c-.76 0-1.17-.39-1.18-1.06a1 1 0 011.17-1.08z"/><path data-name="Path 816" d="M42.15 29.18a14.05 14.05 0 00-20.81-6.84A13.94 13.94 0 0015 36.65 13.68 13.68 0 0018 43a15 15 0 012.35 3.73 16.54 16.54 0 011.26 6.76c0 .93.35 1.27 1.28 1.27h11.88c1.11 0 1.39-.28 1.4-1.4a15.85 15.85 0 01.63-4.59 19.46 19.46 0 013.27-6.06 13.36 13.36 0 002.08-13.53z"/></g></g></g></g></symbol><symbol viewBox="0 0 60 63.31" id="innovation-&amp;-technology~hover" xmlns="http://www.w3.org/2000/svg"><defs><style/></defs><g id="awLayer_2" data-name="Layer 2"><g id="awLayer_1-2" data-name="Layer 1"><path id="awPath_517" data-name="Path 517" fill="#fff" d="M9.14 19.37a4 4 0 11-4-4 4 4 0 014 4z"/><path id="awPath_518" data-name="Path 518" fill="#fff" d="M52.36 56.57a4 4 0 11-4-4 4 4 0 014 4z"/><path id="awPath_519" data-name="Path 519" fill="#dadede" d="M28.12 0l-9.54 13.9h19.08z"/><path id="awPath_520" data-name="Path 520" fill="#fff" d="M60 38.33l-9.53-6.55v13.09z"/><path id="awPath_521" data-name="Path 521" fill="#fff" d="M4 55.8l9.53 6.54V49.25z"/><path id="awRectangle_1500" data-name="Rectangle 1500" fill="#dadede" d="M0 34.37h7.92v7.92H0z"/><path id="awRectangle_1501" data-name="Rectangle 1501" fill="#dadede" d="M46.51 15.42h7.92v7.92h-7.92z"/><g id="awGroup_613" data-name="Group 613" fill="#f2f2f2"><path id="awPath_814" data-name="Path 814" d="M29 59.36h-6a1.07 1.07 0 01-.21-2.12H34.8c.83 0 1.25.38 1.24 1.1a1 1 0 01-.94 1H29z"/><path id="awPath_815" data-name="Path 815" d="M29 61.16h3.75c.75 0 1.18.39 1.19 1.06a1 1 0 01-1 1.09h-7.75c-.76 0-1.17-.39-1.18-1.06a1 1 0 011.17-1.08z"/><path id="awPath_816" data-name="Path 816" d="M42.15 29.18a14.05 14.05 0 00-20.81-6.84A13.94 13.94 0 0015 36.65 13.68 13.68 0 0018 43a15 15 0 012.35 3.73 16.54 16.54 0 011.26 6.76c0 .93.35 1.27 1.28 1.27h11.88c1.11 0 1.39-.28 1.4-1.4a15.85 15.85 0 01.63-4.59 19.46 19.46 0 013.27-6.06 13.36 13.36 0 002.08-13.53z"/></g></g></g></symbol><symbol viewBox="0 0 60 60" id="labour" xmlns="http://www.w3.org/2000/svg"><g data-name="Layer 2"><g data-name="Layer 1"><path d="M30 15.48A14.52 14.52 0 1044.52 30 14.52 14.52 0 0030 15.48zm0 26.28A11.76 11.76 0 1141.76 30 11.75 11.75 0 0130 41.76z" fill="#dadede"/><path d="M49 34.18c.1-.44.18-.88.24-1.33v-.07c0-.19.06-.39.08-.59v-.09l.06-.65v-2.9l-.06-.65v-.09c0-.2 0-.4-.08-.59v-.07c-.06-.45-.14-.89-.24-1.33-.1-.45-.22-.89-.34-1.32a20.25 20.25 0 00-1.58-3.81c-.09-.16-.19-.32-.28-.49l-.1-.16c-.08-.14-.17-.28-.26-.42l-.09-.14c-.09-.15-.19-.29-.29-.43a1.27 1.27 0 00-.13-.19l-.25-.36-.12-.16-.33-.43-.13-.16-.33-.39a.27.27 0 00-.07-.08c-.13-.16-.27-.31-.4-.46l-.12-.12-.44-.45-.45-.44-.12-.12-.46-.4a.27.27 0 00-.08-.07l-.39-.33-.16-.13-.43-.33-.16-.12-.32-.31-.17-.1c-.14-.1-.28-.2-.43-.29l-.14-.09-.43-.26-.16-.1-.49-.28a20.25 20.25 0 00-3.81-1.58c-.43-.12-.87-.24-1.32-.34-.44-.1-.88-.18-1.33-.24h-.07l-.59-.08h-.13l-.65-.06h-2.9l-.65.06h-.09l-.59.08h-.07c-.45.06-.89.14-1.33.24-.45.1-.89.22-1.32.34a20.25 20.25 0 00-3.81 1.58l-.49.28-.16.1-.42.26-.14.09c-.15.09-.29.19-.43.29l-.19.13-.36.25-.16.12-.43.33-.16.13-.39.33a.27.27 0 00-.08.07l-.46.4-.12.12-.45.44-.44.45-.12.12c-.13.15-.27.3-.4.46a.27.27 0 00-.07.08l-.33.39-.13.16-.33.43-.12.16-.25.36a1.27 1.27 0 00-.13.19c-.1.14-.2.28-.29.43l-.09.14c-.09.14-.18.28-.26.42l-.1.16c-.09.17-.19.33-.28.49a20.25 20.25 0 00-1.58 3.81c-.12.43-.24.87-.34 1.32-.1.44-.18.88-.24 1.33v.07c0 .19-.06.39-.08.59v.09l-.06.65v2.9l.06.65v.09c0 .2 0 .4.08.59v.07c.06.45.14.89.24 1.33.1.45.22.89.34 1.32a20.25 20.25 0 001.58 3.81c.09.16.19.32.28.49l.1.16c.08.14.17.28.26.42l.09.14c.09.15.19.29.29.43a1.27 1.27 0 00.13.19l.25.36.12.16.33.43.13.16.33.39a.27.27 0 00.07.08c.13.16.27.31.4.46l.12.12.44.45.45.44.12.12.46.4a.27.27 0 00.08.07l.39.33.16.13.43.33.16.12.36.25.19.13c.14.1.28.2.43.29l.14.09.42.26.16.1.49.28a20.25 20.25 0 003.81 1.58c.43.12.87.24 1.32.34.44.1.88.18 1.33.24h.07l.59.08h.09l.65.06h2.9l.65-.06h.09l.59-.08h.07c.45-.06.89-.14 1.33-.24.45-.1.89-.22 1.32-.34a20.25 20.25 0 003.81-1.58l.49-.28.16-.1.42-.26.14-.09c.15-.09.29-.19.43-.29l.19-.13.36-.25.16-.12.43-.33.16-.13.39-.33a.27.27 0 00.08-.07l.46-.4.12-.12.45-.44.44-.45.12-.12c.13-.15.27-.3.4-.46a.27.27 0 00.07-.08l.33-.39.13-.16.33-.43.12-.16.25-.36a1.27 1.27 0 00.16-.11c.1-.14.2-.28.29-.43l.09-.14c.09-.14.18-.28.26-.42l.1-.16c.09-.17.19-.33.28-.49a20.25 20.25 0 001.58-3.81c.12-.43.24-.87.34-1.32z" fill="none"/><path d="M15.19 17.33a.27.27 0 01.07-.08.27.27 0 00-.07.08zm-1.58 23.22l-.09-.14zM11 25.82zm3.73-7.94l.13-.16zm25.68-4.36l.14.09zm-26.13 4.95l.12-.16zm-.38.53a1.27 1.27 0 01.13-.19 1.27 1.27 0 00-.13.19zm-.74 1.17l.1-.16zm-2.53 12.02v-.09.09zm-.01-4.29v-.09.09zm.1 4.95zM13.26 40l-.1-.16zM11 34.21zm-.44-2.76zm0-2.81zm-.04.72zm0 1.45zm.19-3.59zm18.48-16.7zm1.45 0zm-14.98 6.27l.12-.12zm15.7-6.23zm8.47 2.6l.16.1zM34.18 11zm-6.37-.37zm4.97.08zm-.68-.09zm-3.55-.06zM18.31 14.4l.16-.12zm-.59.46l.16-.13zm-.47.4a.27.27 0 01.08-.07.27.27 0 00-.08.07zm-.58.52l.12-.12zM18.83 14l.17-.1zm8.32-3.28zM20 13.26l.16-.1zm-.55.35l.14-.09zm-5.93 5.98l.09-.14zm27.03 26.8l-.14.09zm1.14-.79l-.16.12zm-.52.4l-.17.1zm1.11-.86l-.16.13zm-10.09 4.23zm.66-.09zm9.9-4.54a.27.27 0 01-.08.07.27.27 0 00.08-.07zm-2.75 2l-.16.1zM34.21 49zm11.51-7.47l-.12.16zm-2.39 2.69l-.12.12zM46.1 41a1.27 1.27 0 01-.13.19 1.27 1.27 0 00.13-.19zm.38-.59l-.09.14zm.36-.58l-.1.16zm-15.39 9.61zm12.89-6.23l-.12.12zm.93-1.09l-.13.16zm-.46.55a.27.27 0 01-.07.08.27.27 0 00.07-.08zM25.82 49zm-8.49-4.19a.27.27 0 01-.08-.07.27.27 0 00.08.07zm1.14.91l-.16-.12zm-.59-.45l-.16-.13zm12.93 4.21zm-14.02-5.14l-.12-.12zm-2.39-2.65l-.12-.16zm.46.59l-.13-.16zm.4.47a.27.27 0 01-.07-.08.27.27 0 00.07.08zm.52.58l-.12-.12zm11.44 5.96zm1.42.15zm-.74-.06zM19 46.1l-.17-.1zm10.36 3.38zM14 41.17a1.27 1.27 0 01-.1-.17 1.27 1.27 0 00.1.17zm5.59 5.31l-.14-.09zm.58.36l-.16-.1zM25.79 11zM49 25.79zm-2.61-6.34l.09.14zm-.39-.62a1.27 1.27 0 01.13.19 1.27 1.27 0 00-.13-.19zm.74 1.17l.1.16zm-2-2.75a.27.27 0 01.07.08.27.27 0 00-.07-.08zm.86 1.06l.12.16zm3.84 13.05zm-.15 1.42zm.19-2.14zm-5.26-13.97l.12.12zm5.16 15.43zM49 34.18zm.28-7.03zm.09.66zm.07.74zm.04.64zm-4.34-11.47l.13.16zm-3.02-2.99l.16.13zm.55.46a.27.27 0 01.08.07.27.27 0 00-.08-.07zM41 13.9l.19.13zm2.21 1.76l.12.12zm-1.68-1.38l.16.12z" fill="#01080c"/><path d="M35.53 6.58V0H24.47v6.58a24.21 24.21 0 0111.06 0zm-7.63 4.04l.65-.06zm2.1-.11zm-4.21.49c-.45.1-.89.22-1.32.34.43-.16.87-.28 1.32-.34zm5.02-.48h.55zm-2.17.04h.55zm-2.82.44c.44-.1.88-.18 1.33-.24-.45.02-.89.1-1.33.24zm3.54-.48zm3.49.2zm2.68.58zm-8.31-.59l.59-.08zm4.23-.15l.65.06zm.74.07l.59.08zm10.09 4.23l.39.33zm8.19 2.49l4.65-4.65-7.82-7.82-4.65 4.65a24.34 24.34 0 017.82 7.82zm-3.63 2.82c.09.17.19.33.28.49-.12-.16-.19-.32-.28-.49zm-5.15-5.77l.43.33zm4.79 5.19zm-2.7-3.37l.44.45zm-.45-.44l.45.44zm1.94 2.1l.33.43zm.45.59l.25.36zm-.91-1.14l.33.39zM40 13.26l.42.26zm4.34 3.53c.13.15.27.3.4.46-.13-.16-.27-.31-.4-.46zM46.1 19c.1.14.2.28.29.43-.09-.13-.19-.27-.29-.43zm-6.76-6.12l.49.28zm3.41 2.38l.46.4zM41.17 14l.36.25zm-.62-.39c.15.09.29.19.43.29-.14-.1-.28-.2-.43-.29zm8.93 15.75V30c.01-.21.01-.43 0-.64zM49 25.79c-.1-.45-.22-.89-.34-1.32.16.43.28.87.34 1.32zm.49 4.21zm-.21 2.85zm.2-2.04v.55c-.02-.18-.01-.36 0-.55zm-.11 1.38c0 .2 0 .4-.08.59.03-.19.06-.39.08-.59zm-.67 3.34zm.59-8.31c0 .19.06.39.08.59-.02-.2-.05-.4-.08-.59zm.09.68l.06.65zM49 25.82c.1.44.18.88.24 1.33-.02-.45-.1-.89-.24-1.33zm.44 2.82v.55c.03-.19.02-.37 0-.55zm0 2.81l-.06.65zm3.98 4.08H60V24.47h-6.58a24.21 24.21 0 010 11.06zm-10.75 9.28l-.39.33zm-1.14.91l-.36.25zm.59-.45l-.43.33zm-1.71 1.21l-.42.26zm-.58.36l-.49.28zm3.95-3.06l-.45.44zM41 46.1c-.14.1-.28.2-.43.29.13-.09.27-.19.43-.29zm5.39-5.55c-.09.15-.19.29-.29.43.1-.14.2-.28.29-.43zm-.79 1.14l-.33.43zm.4-.52l-.25.36zm-1.78 2.16l-.44.45zM46.74 40c-.08.14-.17.28-.26.42.09-.15.18-.29.26-.42zm.38-.66c-.09.16-.19.32-.28.49.09-.17.16-.33.28-.49zm-2.38 3.41c-.13.16-.27.31-.4.46.13-.15.27-.3.4-.46zm-1.53 1.59l-.46.4zm1.93-2.06l-.33.39zm-2.49 8.19l4.65 4.65 7.82-7.82-4.65-4.65a24.34 24.34 0 01-7.82 7.82zm-15.5-1.19zm.66.09l-.59-.08zm.74.07l-.65-.06zm3.55-.06l-.65.06zm3.43-.68zm-11.06 4.72V60h11.06v-6.58a24.21 24.21 0 01-11.06 0zM25.79 49c-.45-.1-.89-.22-1.32-.34.43.16.87.28 1.32.34zm3.4.48h-.55zm4.99-.48c-.44.1-.88.18-1.33.24.45-.02.89-.1 1.33-.24zm-4.18.49zm.64-.01zm.72-.04h-.55zm1.42-.15l-.59.08zm-16.11-5.07l-.45-.44zm-.45-.44l-.44-.45zm-3.06-3.95c-.09-.17-.19-.33-.28-.49.12.16.19.32.28.49zm4.09 4.91l-.46-.4zm-3.73-4.33zm.38.59c-.1-.14-.2-.28-.29-.43.09.13.19.27.29.43zm1.29 1.67l-.33-.39zm.47.54c-.13-.15-.27-.3-.4-.46.13.16.27.31.4.46zm-1.38-1.68l-.28-.36zm.45.59l-.33-.43zm4.72 4.27c-.15-.09-.29-.19-.43-.29.14.1.28.2.43.29zm.55.35l-.42-.26zM18.83 46l-.36-.25zm-9.3-3.35L4.88 47.3l7.82 7.82 4.65-4.65a24.34 24.34 0 01-7.82-7.82zm8.78 2.95l-.43-.33zm2.35 1.52l-.49-.28zm-2.94-1.98l-.39-.33zM6.58 24.47H0v11.06h6.58a24.21 24.21 0 010-11.06zm4.04 7.63l-.06-.65zm.68-7.63zm-.59 8.31c0-.19-.06-.39-.08-.59.02.2.05.4.08.59zm.01-5.63zm.28 7.03c-.1-.44-.18-.88-.24-1.33.02.45.1.89.24 1.33zm.3 1.35zm-.74-4.17v-.55c-.03.19-.02.37 0 .55zm-.04-.72V30c-.01.21-.01.43 0 .64zm.11-2.83c0-.2 0-.4.08-.59-.03.19-.06.39-.08.59zm-.11 1.38v-.55c.02.18.01.36 0 .55zm.04-.64l.06-.65zM10.51 30v-.64.64zm4.75-12.75c.13-.16.27-.31.4-.46-.13.15-.27.3-.4.46zm3.21-2.97l.36-.25zm-2.25 1.94l.45-.44zm1.11-1.03l.39-.33zm-.54.47l.46-.4zm1.09-.93l.43-.33zm2.29-1.57l.49-.28zM19 13.9c.14-.1.28-.2.43-.29-.13.09-.27.19-.43.29zm.59-.38l.42-.26zm-3.81 3.15l.44-.45zM13.26 20c.08-.14.17-.28.26-.42-.09.15-.18.29-.26.42zm-.38.66c.09-.16.19-.32.28-.49-.09.17-.16.33-.28.49zm.73-1.21c.09-.15.19-.29.29-.43-.1.14-.2.28-.29.43zm3.74-9.92L12.7 4.88 4.88 12.7l4.65 4.65a24.34 24.34 0 017.82-7.82zm-2.49 8.19l.33-.39zm-.46.59l.33-.43zm-.4.52l.25-.36z" fill="#00b1ff"/><path d="M25.79 11c.44-.1.88-.18 1.33-.24h.07l.59-.08h.09l.65-.06h2.9l.65.06h.09l.59.08h.07c.45.06.89.14 1.33.24.45.1.89.22 1.32.34V6.58a24.21 24.21 0 00-11.06 0v4.72c.49-.12.93-.24 1.38-.3zm13.55 1.88l.49.28.16.1.42.26.14.09c.15.09.29.19.43.29l.19.13.36.25.16.12.43.33.16.13.39.33a.27.27 0 01.08.07l.46.4.12.12.45.44.44.45.12.12c.13.15.27.3.4.46a.27.27 0 01.07.08l.33.39.13.16.33.43.12.16.25.36a1.27 1.27 0 01.13.19c.1.14.2.28.29.43l.09.14c.09.14.18.28.26.42l.1.16c.09.17.19.33.28.49l3.34-3.34a24.34 24.34 0 00-7.82-7.82l-3.34 3.34zM49 25.79c.1.44.18.88.24 1.33v.07c0 .19.06.39.08.59v.09l.06.65v2.9l-.06.65v.09c0 .2 0 .4-.08.59v.07c-.06.45-.14.89-.24 1.33-.1.45-.22.89-.34 1.32h4.72a24.21 24.21 0 000-11.06H48.7c.12.49.24.93.3 1.38zm-1.88 13.55c-.09.16-.19.32-.28.49l-.1.16c-.08.14-.17.28-.26.42l-.09.14c-.09.15-.19.29-.29.43a1.27 1.27 0 01-.13.19l-.25.36-.12.16-.33.43-.13.16-.33.39a.27.27 0 01-.07.08c-.13.16-.27.31-.4.46l-.12.12-.44.45-.45.44-.12.12-.46.4a.27.27 0 01-.08.07l-.39.33-.16.13-.43.33-.16.12-.36.25-.17.13c-.14.1-.28.2-.43.29l-.14.09-.42.26-.16.1-.49.28 3.34 3.34a24.34 24.34 0 007.82-7.82l-3.34-3.34zM35.53 48.7c-.43.12-.87.24-1.32.34-.44.1-.88.18-1.33.24h-.07l-.59.08h-.12l-.65.06h-2.9l-.65-.06h-.09l-.59-.08h-.07c-.45-.06-.89-.14-1.33-.24-.45-.1-.89-.22-1.32-.34v4.72a24.21 24.21 0 0011.06 0V48.7zm-14.87-1.58l-.49-.28-.16-.1-.42-.26-.14-.09c-.15-.09-.29-.19-.43-.29l-.19-.1-.36-.25-.16-.12-.43-.33-.16-.13-.39-.33a.27.27 0 01-.08-.07l-.46-.4-.12-.12-.45-.44-.44-.45-.12-.12c-.13-.15-.27-.3-.4-.46a.27.27 0 01-.07-.08l-.33-.39-.13-.16-.33-.43-.12-.16-.28-.39a1.27 1.27 0 01-.1-.17c-.1-.14-.2-.28-.29-.43l-.09-.14c-.09-.14-.18-.28-.26-.42l-.1-.16c-.09-.17-.19-.33-.28-.49l-3.35 3.29a24.34 24.34 0 007.82 7.82l3.34-3.34zM11.3 35.53c-.12-.43-.24-.87-.34-1.32-.1-.44-.18-.88-.24-1.33v-.07c0-.19-.06-.39-.08-.59v-.09l-.06-.65v-2.9l.06-.65v-.09c0-.2 0-.4.08-.59v-.07c.06-.45.14-.89.24-1.33.1-.45.22-.89.34-1.32H6.58a24.21 24.21 0 000 11.06zm1.58-14.87c.09-.16.19-.32.28-.49l.1-.16c.08-.14.17-.28.26-.42l.09-.14c.09-.15.19-.29.29-.43a1.27 1.27 0 01.13-.19l.25-.36.12-.16.33-.43.13-.16.33-.39a.27.27 0 01.07-.08c.13-.16.27-.31.4-.46l.12-.12.44-.45.45-.44.12-.12.46-.4a.27.27 0 01.08-.07l.39-.33.16-.13.43-.33.16-.12.36-.25.17-.13c.14-.1.28-.2.43-.29l.14-.09.42-.26.16-.1.49-.28-3.29-3.35a24.34 24.34 0 00-7.82 7.82l3.34 3.34z" fill="#068dfc"/><path d="M39.34 47.12a20.25 20.25 0 01-3.81 1.58v4.72a24.3 24.3 0 007.12-3l-3.34-3.34zm-3.81 1.58zm-14.84-1.57l-3.34 3.34a24.3 24.3 0 007.12 3V48.7a20.25 20.25 0 01-3.81-1.58zm3.78 1.57zm-3.81-35.82a20.25 20.25 0 013.81-1.58V6.58a24.3 24.3 0 00-7.12 2.95l3.34 3.34zm-7.78 7.78l-3.35-3.31a24.3 24.3 0 00-2.95 7.12h4.72a20.25 20.25 0 011.58-3.81zM48.7 35.53zm-1.58 3.81l3.34 3.34a24.3 24.3 0 003-7.12H48.7a20.25 20.25 0 01-1.58 3.78zM6.58 35.53a24.3 24.3 0 002.95 7.12l3.34-3.34a20.25 20.25 0 01-1.58-3.81zm4.72 0zM35.53 11.3a20.25 20.25 0 013.81 1.58l3.34-3.34a24.3 24.3 0 00-7.12-2.95zm17.89 13.17a24.3 24.3 0 00-3-7.12l-3.34 3.34a20.25 20.25 0 011.58 3.81z" fill="#00adef"/></g></g></symbol><symbol viewBox="0 0 60 60" id="labour~hover" xmlns="http://www.w3.org/2000/svg"><g data-name="Layer 2"><g data-name="Layer 1"><path d="M30 15.48A14.52 14.52 0 1044.52 30 14.52 14.52 0 0030 15.48zm0 26.28A11.76 11.76 0 1141.76 30 11.75 11.75 0 0130 41.76z" fill="#fff"/><path fill="#f2f2f2" d="M15.19 17.33a.27.27 0 01.07-.08.27.27 0 00-.07.08zm-1.58 23.22l-.09-.14zM11 25.82zm3.73-7.94l.13-.16zm25.68-4.36l.14.09zm-26.13 4.95l.12-.16zm-.38.53a1.27 1.27 0 01.13-.19 1.27 1.27 0 00-.13.19zm-.74 1.17l.1-.16zm-2.53 12.02v-.09.09zm-.01-4.29v-.09.09zm.1 4.95zM13.26 40l-.1-.16zM11 34.21zm-.44-2.76zm0-2.81zm-.04.72zm0 1.45zm.19-3.59zm18.48-16.7zm1.45 0zm-14.98 6.27l.12-.12zm15.7-6.23zm8.47 2.6l.16.1zM34.18 11zm-6.37-.37zm4.97.08zm-.68-.09zm-3.55-.06zM18.31 14.4l.16-.12zm-.59.46l.16-.13zm-.47.4a.27.27 0 01.08-.07.27.27 0 00-.08.07zm-.58.52l.12-.12zM18.83 14l.17-.1zm8.32-3.28zM20 13.26l.16-.1zm-.55.35l.14-.09zm-5.93 5.98l.09-.14zm27.03 26.8l-.14.09zm1.14-.79l-.16.12zm-.52.4l-.17.1zm1.11-.86l-.16.13zm-10.09 4.23zm.66-.09zm9.9-4.54a.27.27 0 01-.08.07.27.27 0 00.08-.07zm-2.75 2l-.16.1zM34.21 49zm11.51-7.47l-.12.16zm-2.39 2.69l-.12.12zM46.1 41a1.27 1.27 0 01-.13.19 1.27 1.27 0 00.13-.19zm.38-.59l-.09.14zm.36-.58l-.1.16zm-15.39 9.61zm12.89-6.23l-.12.12zm.93-1.09l-.13.16zm-.46.55a.27.27 0 01-.07.08.27.27 0 00.07-.08zM25.82 49zm-8.49-4.19a.27.27 0 01-.08-.07.27.27 0 00.08.07zm1.14.91l-.16-.12zm-.59-.45l-.16-.13zm12.93 4.21zm-14.02-5.14l-.12-.12zm-2.39-2.65l-.12-.16zm.46.59l-.13-.16zm.4.47a.27.27 0 01-.07-.08.27.27 0 00.07.08zm.52.58l-.12-.12zm11.44 5.96zm1.42.15zm-.74-.06zM19 46.1l-.17-.1zm10.36 3.38zM14 41.17a1.27 1.27 0 01-.1-.17 1.27 1.27 0 00.1.17zm5.59 5.31l-.14-.09zm.58.36l-.16-.1zM25.79 11zM49 25.79zm-2.61-6.34l.09.14zm-.39-.62a1.27 1.27 0 01.13.19 1.27 1.27 0 00-.13-.19zm.74 1.17l.1.16zm-2-2.75a.27.27 0 01.07.08.27.27 0 00-.07-.08zm.86 1.06l.12.16zm3.84 13.05zm-.15 1.42zm.19-2.14zm-5.26-13.97l.12.12zm5.16 15.43zM49 34.18zm.28-7.03zm.09.66zm.07.74zm.04.64zm-4.34-11.47l.13.16zm-3.02-2.99l.16.13zm.55.46a.27.27 0 01.08.07.27.27 0 00-.08-.07zM41 13.9l.19.13zm2.21 1.76l.12.12zm-1.68-1.38l.16.12zm-6-7.7V0H24.47v6.58a24.21 24.21 0 0111.06 0zm-7.63 4.04l.65-.06zm2.1-.11zm-4.21.49c-.45.1-.89.22-1.32.34.43-.16.87-.28 1.32-.34zm5.02-.48h.55zm-2.17.04h.55zm-2.82.44c.44-.1.88-.18 1.33-.24-.45.02-.89.1-1.33.24zm3.54-.48zm3.49.2zm2.68.58zm-8.31-.59l.59-.08zm4.23-.15l.65.06zm.74.07l.59.08zm10.09 4.23l.39.33zm8.19 2.49l4.65-4.65-7.82-7.82-4.65 4.65a24.34 24.34 0 017.82 7.82zm-3.63 2.82c.09.17.19.33.28.49-.12-.16-.19-.32-.28-.49zm-5.15-5.77l.43.33zm4.79 5.19zm-2.7-3.37l.44.45zm-.45-.44l.45.44zm1.94 2.1l.33.43zm.45.59l.25.36zm-.91-1.14l.33.39zM40 13.26l.42.26zm4.34 3.53c.13.15.27.3.4.46-.13-.16-.27-.31-.4-.46zM46.1 19c.1.14.2.28.29.43-.09-.13-.19-.27-.29-.43zm-6.76-6.12l.49.28zm3.41 2.38l.46.4zM41.17 14l.36.25zm-.62-.39c.15.09.29.19.43.29-.14-.1-.28-.2-.43-.29zm8.93 15.75V30c.01-.21.01-.43 0-.64zM49 25.79c-.1-.45-.22-.89-.34-1.32.16.43.28.87.34 1.32zm.49 4.21zm-.21 2.85zm.2-2.04v.55c-.02-.18-.01-.36 0-.55zm-.11 1.38c0 .2 0 .4-.08.59.03-.19.06-.39.08-.59zm-.67 3.34zm.59-8.31c0 .19.06.39.08.59-.02-.2-.05-.4-.08-.59zm.09.68l.06.65zM49 25.82c.1.44.18.88.24 1.33-.02-.45-.1-.89-.24-1.33zm.44 2.82v.55c.03-.19.02-.37 0-.55zm0 2.81l-.06.65zm3.98 4.08H60V24.47h-6.58a24.21 24.21 0 010 11.06zm-10.75 9.28l-.39.33zm-1.14.91l-.36.25zm.59-.45l-.43.33zm-1.71 1.21l-.42.26zm-.58.36l-.49.28zm3.95-3.06l-.45.44zM41 46.1c-.14.1-.28.2-.43.29.13-.09.27-.19.43-.29zm5.39-5.55c-.09.15-.19.29-.29.43.1-.14.2-.28.29-.43zm-.79 1.14l-.33.43zm.4-.52l-.25.36zm-1.78 2.16l-.44.45zM46.74 40c-.08.14-.17.28-.26.42.09-.15.18-.29.26-.42zm.38-.66c-.09.16-.19.32-.28.49.09-.17.16-.33.28-.49zm-2.38 3.41c-.13.16-.27.31-.4.46.13-.15.27-.3.4-.46zm-1.53 1.59l-.46.4zm1.93-2.06l-.33.39zm-2.49 8.19l4.65 4.65 7.82-7.82-4.65-4.65a24.34 24.34 0 01-7.82 7.82zm-15.5-1.19zm.66.09l-.59-.08zm.74.07l-.65-.06zm3.55-.06l-.65.06zm3.43-.68zm-11.06 4.72V60h11.06v-6.58a24.21 24.21 0 01-11.06 0zM25.79 49c-.45-.1-.89-.22-1.32-.34.43.16.87.28 1.32.34zm3.4.48h-.55zm4.99-.48c-.44.1-.88.18-1.33.24.45-.02.89-.1 1.33-.24zm-4.18.49zm.64-.01zm.72-.04h-.55zm1.42-.15l-.59.08zm-16.11-5.07l-.45-.44zm-.45-.44l-.44-.45zm-3.06-3.95c-.09-.17-.19-.33-.28-.49.12.16.19.32.28.49zm4.09 4.91l-.46-.4zm-3.73-4.33zm.38.59c-.1-.14-.2-.28-.29-.43.09.13.19.27.29.43zm1.29 1.67l-.33-.39zm.47.54c-.13-.15-.27-.3-.4-.46.13.16.27.31.4.46zm-1.38-1.68l-.28-.36zm.45.59l-.33-.43zm4.72 4.27c-.15-.09-.29-.19-.43-.29.14.1.28.2.43.29zm.55.35l-.42-.26zM18.83 46l-.36-.25zm-9.3-3.35L4.88 47.3l7.82 7.82 4.65-4.65a24.34 24.34 0 01-7.82-7.82zm8.78 2.95l-.43-.33zm2.35 1.52l-.49-.28zm-2.94-1.98l-.39-.33zM6.58 24.47H0v11.06h6.58a24.21 24.21 0 010-11.06zm4.04 7.63l-.06-.65zm.68-7.63zm-.59 8.31c0-.19-.06-.39-.08-.59.02.2.05.4.08.59zm.01-5.63zm.28 7.03c-.1-.44-.18-.88-.24-1.33.02.45.1.89.24 1.33zm.3 1.35zm-.74-4.17v-.55c-.03.19-.02.37 0 .55zm-.04-.72V30c-.01.21-.01.43 0 .64zm.11-2.83c0-.2 0-.4.08-.59-.03.19-.06.39-.08.59zm-.11 1.38v-.55c.02.18.01.36 0 .55zm.04-.64l.06-.65zM10.51 30v-.64.64zm4.75-12.75c.13-.16.27-.31.4-.46-.13.15-.27.3-.4.46zm3.21-2.97l.36-.25zm-2.25 1.94l.45-.44zm1.11-1.03l.39-.33zm-.54.47l.46-.4zm1.09-.93l.43-.33zm2.29-1.57l.49-.28zM19 13.9c.14-.1.28-.2.43-.29-.13.09-.27.19-.43.29zm.59-.38l.42-.26zm-3.81 3.15l.44-.45zM13.26 20c.08-.14.17-.28.26-.42-.09.15-.18.29-.26.42zm-.38.66c.09-.16.19-.32.28-.49-.09.17-.16.33-.28.49zm.73-1.21c.09-.15.19-.29.29-.43-.1.14-.2.28-.29.43zm3.74-9.92L12.7 4.88 4.88 12.7l4.65 4.65a24.34 24.34 0 017.82-7.82zm-2.49 8.19l.33-.39zm-.46.59l.33-.43zm-.4.52l.25-.36z"/><path d="M25.79 11c.44-.1.88-.18 1.33-.24h.07l.59-.08h.09l.65-.06h2.9l.65.06h.09l.59.08h.07c.45.06.89.14 1.33.24.45.1.89.22 1.32.34V6.58a24.21 24.21 0 00-11.06 0v4.72c.49-.12.93-.24 1.38-.3zm13.55 1.88l.49.28.16.1.42.26.14.09c.15.09.29.19.43.29l.19.13.36.25.16.12.43.33.16.13.39.33a.27.27 0 01.08.07l.46.4.12.12.45.44.44.45.12.12c.13.15.27.3.4.46a.27.27 0 01.07.08l.33.39.13.16.33.43.12.16.25.36a1.27 1.27 0 01.13.19c.1.14.2.28.29.43l.09.14c.09.14.18.28.26.42l.1.16c.09.17.19.33.28.49l3.34-3.34a24.34 24.34 0 00-7.82-7.82l-3.34 3.34zM49 25.79c.1.44.18.88.24 1.33v.07c0 .19.06.39.08.59v.09l.06.65v2.9l-.06.65v.09c0 .2 0 .4-.08.59v.07c-.06.45-.14.89-.24 1.33-.1.45-.22.89-.34 1.32h4.72a24.21 24.21 0 000-11.06H48.7c.12.49.24.93.3 1.38zm-1.88 13.55c-.09.16-.19.32-.28.49l-.1.16c-.08.14-.17.28-.26.42l-.09.14c-.09.15-.19.29-.29.43a1.27 1.27 0 01-.13.19l-.25.36-.12.16-.33.43-.13.16-.33.39a.27.27 0 01-.07.08c-.13.16-.27.31-.4.46l-.12.12-.44.45-.45.44-.12.12-.46.4a.27.27 0 01-.08.07l-.39.33-.16.13-.43.33-.16.12-.36.25-.17.13c-.14.1-.28.2-.43.29l-.14.09-.42.26-.16.1-.49.28 3.34 3.34a24.34 24.34 0 007.82-7.82l-3.34-3.34zM35.53 48.7c-.43.12-.87.24-1.32.34-.44.1-.88.18-1.33.24h-.07l-.59.08h-.12l-.65.06h-2.9l-.65-.06h-.09l-.59-.08h-.07c-.45-.06-.89-.14-1.33-.24-.45-.1-.89-.22-1.32-.34v4.72a24.21 24.21 0 0011.06 0V48.7zm-14.87-1.58l-.49-.28-.16-.1-.42-.26-.14-.09c-.15-.09-.29-.19-.43-.29l-.19-.1-.36-.25-.16-.12-.43-.33-.16-.13-.39-.33a.27.27 0 01-.08-.07l-.46-.4-.12-.12-.45-.44-.44-.45-.12-.12c-.13-.15-.27-.3-.4-.46a.27.27 0 01-.07-.08l-.33-.39-.13-.16-.33-.43-.12-.16-.28-.39a1.27 1.27 0 01-.1-.17c-.1-.14-.2-.28-.29-.43l-.09-.14c-.09-.14-.18-.28-.26-.42l-.1-.16c-.09-.17-.19-.33-.28-.49l-3.35 3.29a24.34 24.34 0 007.82 7.82l3.34-3.34zM11.3 35.53c-.12-.43-.24-.87-.34-1.32-.1-.44-.18-.88-.24-1.33v-.07c0-.19-.06-.39-.08-.59v-.09l-.06-.65v-2.9l.06-.65v-.09c0-.2 0-.4.08-.59v-.07c.06-.45.14-.89.24-1.33.1-.45.22-.89.34-1.32H6.58a24.21 24.21 0 000 11.06zm1.58-14.87c.09-.16.19-.32.28-.49l.1-.16c.08-.14.17-.28.26-.42l.09-.14c.09-.15.19-.29.29-.43a1.27 1.27 0 01.13-.19l.25-.36.12-.16.33-.43.13-.16.33-.39a.27.27 0 01.07-.08c.13-.16.27-.31.4-.46l.12-.12.44-.45.45-.44.12-.12.46-.4a.27.27 0 01.08-.07l.39-.33.16-.13.43-.33.16-.12.36-.25.17-.13c.14-.1.28-.2.43-.29l.14-.09.42-.26.16-.1.49-.28-3.29-3.35a24.34 24.34 0 00-7.82 7.82l3.34 3.34z" fill="#dadede"/><path fill="#f2f2f2" d="M39.34 47.12a20.25 20.25 0 01-3.81 1.58v4.72a24.3 24.3 0 007.12-3l-3.34-3.34zm-3.81 1.58zm-14.84-1.57l-3.34 3.34a24.3 24.3 0 007.12 3V48.7a20.25 20.25 0 01-3.81-1.58zm3.78 1.57zm-3.81-35.82a20.25 20.25 0 013.81-1.58V6.58a24.3 24.3 0 00-7.12 2.95l3.34 3.34zm-7.78 7.78l-3.35-3.31a24.3 24.3 0 00-2.95 7.12h4.72a20.25 20.25 0 011.58-3.81zM48.7 35.53zm-1.58 3.81l3.34 3.34a24.3 24.3 0 003-7.12H48.7a20.25 20.25 0 01-1.58 3.78zM6.58 35.53a24.3 24.3 0 002.95 7.12l3.34-3.34a20.25 20.25 0 01-1.58-3.81zm4.72 0zM35.53 11.3a20.25 20.25 0 013.81 1.58l3.34-3.34a24.3 24.3 0 00-7.12-2.95zm17.89 13.17a24.3 24.3 0 00-3-7.12l-3.34 3.34a20.25 20.25 0 011.58 3.81z"/></g></g></symbol><symbol viewBox="0 0 60 40.4" id="peace-negotiations" xmlns="http://www.w3.org/2000/svg"><g data-name="Layer 2"><g data-name="Layer 1"><g data-name="Group 686"><path data-name="Path 526" d="M26.42 6.22L20.2 0 0 20.2l20.2 20.2 6.29-6.29-.07-.11a19.68 19.68 0 010-27.82z" fill="#068dfc"/><path data-name="Path 527" d="M26.42 6.22l14 14-13.93 13.89a19.67 19.67 0 10-.07-27.89z" fill="#00adef"/><path data-name="Path 528" d="M26.42 6.21a19.68 19.68 0 000 27.82l.07.07L40.4 20.19z" fill="#dadede"/></g></g></g></symbol><symbol viewBox="0 0 60 40.4" id="peace-negotiations~hover" xmlns="http://www.w3.org/2000/svg"><g data-name="Layer 2"><g data-name="Layer 1"><path data-name="Path 526" d="M26.42 6.22L20.2 0 0 20.2l20.2 20.2 6.29-6.29-.07-.11a19.68 19.68 0 010-27.82z" fill="#dadede"/><path data-name="Path 527" d="M26.42 6.22l14 14-13.93 13.89a19.67 19.67 0 10-.07-27.89z" fill="#f2f2f2"/><path data-name="Path 528" d="M26.42 6.21a19.68 19.68 0 000 27.82l.07.07L40.4 20.19z" fill="#fff"/></g></g></symbol><symbol class="bbsvg-inline--fa bbfa-smile-wink bbfa-w-16" viewBox="0 0 496 512" id="smile-wink-regular" xmlns="http://www.w3.org/2000/svg"><path fill="currentColor" d="M248 8C111 8 0 119 0 256s111 248 248 248 248-111 248-248S385 8 248 8zm0 448c-110.3 0-200-89.7-200-200S137.7 56 248 56s200 89.7 200 200-89.7 200-200 200zm117.8-146.4c-10.2-8.5-25.3-7.1-33.8 3.1-20.8 25-51.5 39.4-84 39.4s-63.2-14.3-84-39.4c-8.5-10.2-23.7-11.5-33.8-3.1-10.2 8.5-11.5 23.6-3.1 33.8 30 36 74.1 56.6 120.9 56.6s90.9-20.6 120.9-56.6c8.5-10.2 7.1-25.3-3.1-33.8zM168 240c17.7 0 32-14.3 32-32s-14.3-32-32-32-32 14.3-32 32 14.3 32 32 32zm160-60c-25.7 0-55.9 16.9-59.9 42.1-1.7 11.2 11.5 18.2 19.8 10.8l9.5-8.5c14.8-13.2 46.2-13.2 61 0l9.5 8.5c8.5 7.4 21.6.3 19.8-10.8-3.8-25.2-34-42.1-59.7-42.1z"/></symbol><symbol viewBox="0 0 85 85" id="sustainable-development" xmlns="http://www.w3.org/2000/svg"><style/><g id="bcLayer_2" data-name="Layer 2"><g id="bcLayer_1-2" data-name="Layer 1"><path id="bcPath_817" data-name="Path 817" d="M21.87 30.41a24.14 24.14 0 013.81-4.9L13.17 11.79a42.67 42.67 0 00-7.94 10.33z" fill="#068dfc"/><path id="bcPath_818" data-name="Path 818" d="M52.44 20.72A23.8 23.8 0 0157.68 24l12.55-13.7a42.9 42.9 0 00-11.12-6.93z" fill="#00adef"/><path id="bcPath_819" data-name="Path 819" d="M81.14 24.81l-16.63 8.28A24.06 24.06 0 0166.17 39l18.5-1.75a42 42 0 00-3.53-12.41" fill="#00adef"/><path id="bcPath_820" data-name="Path 820" d="M63.32 30.73l16.62-8.29a42.53 42.53 0 00-7.77-10.31L59.63 25.82a24.56 24.56 0 013.69 4.91" fill="#00adef"/><path id="bcPath_821" data-name="Path 821" d="M18.56 42.49v-1.12L.09 39.71C0 40.63 0 41.55 0 42.49a42.57 42.57 0 001.26 10.29l17.87-5.13a23.64 23.64 0 01-.56-5.16" fill="#068dfc"/><path id="bcPath_822" data-name="Path 822" d="M61 57.64a24.48 24.48 0 01-4.51 4.24l9.75 15.82a43 43 0 009.57-8.88z" fill="#dadede"/><path id="bcPath_823" data-name="Path 823" d="M66.43 42.48a23.57 23.57 0 01-.55 5.1l17.87 5.14A42.59 42.59 0 0085 42.48c0-.88 0-1.75-.08-2.61l-18.5 1.74v.87" fill="#dadede"/><path id="bcPath_824" data-name="Path 824" d="M24.31 58L9.52 69.23A43 43 0 0019.18 78l9.76-15.8a24.25 24.25 0 01-4.63-4.2" fill="#068dfc"/><path id="bcPath_825" data-name="Path 825" d="M18.86 38.72a23.81 23.81 0 011.78-6L4 24.48A42.22 42.22 0 00.35 37.06z" fill="#068dfc"/><path id="bcPath_826" data-name="Path 826" d="M64 79.13l-9.75-15.8a24 24 0 01-5.69 2.31L52 83.92a42.57 42.57 0 0012-4.79" fill="#dadede"/><path id="bcPath_827" data-name="Path 827" d="M65.17 50.16a23.57 23.57 0 01-2.6 5.34l14.84 11.19A42.6 42.6 0 0083 55.29z" fill="#dadede"/><path id="bcPath_828" data-name="Path 828" d="M46 66.19a23.85 23.85 0 01-6.26.08l-3.48 18.27a42.57 42.57 0 0013.14-.1z" fill="#dadede"/><path id="bcPath_829" data-name="Path 829" d="M44 18.6a23.66 23.66 0 016 1.15L56.63 2.4A42.41 42.41 0 0044 0z" fill="#00adef"/><path id="bcPath_830" data-name="Path 830" d="M37.09 65.81a24.06 24.06 0 01-5.89-2.22l-9.77 15.8a42.58 42.58 0 0012.22 4.68z" fill="#068dfc"/><path id="bcPath_831" data-name="Path 831" d="M35.3 19.66a23.52 23.52 0 016.06-1.08V0a42.24 42.24 0 00-12.78 2.33z" fill="#00adef"/><path id="bcPath_832" data-name="Path 832" d="M22.68 55.89a24.12 24.12 0 01-2.83-5.68L2 55.34a42.46 42.46 0 005.9 11.79z" fill="#068dfc"/><path id="bcPath_833" data-name="Path 833" d="M27.66 23.72a24.1 24.1 0 015.15-3.11L26.1 3.29a42.72 42.72 0 00-11 6.7z" fill="#00adef"/></g></g></symbol><symbol viewBox="0 0 85 85" id="sustainable-development-goals" xmlns="http://www.w3.org/2000/svg"><style/><g id="bdLayer_2" data-name="Layer 2"><g id="bdLayer_1-2" data-name="Layer 1"><path id="bdPath_817" data-name="Path 817" d="M21.87 30.41a24.14 24.14 0 013.81-4.9L13.17 11.79a42.67 42.67 0 00-7.94 10.33z" fill="#068dfc"/><path id="bdPath_818" data-name="Path 818" d="M52.44 20.72A23.8 23.8 0 0157.68 24l12.55-13.7a42.9 42.9 0 00-11.12-6.93z" fill="#00adef"/><path id="bdPath_819" data-name="Path 819" d="M81.14 24.81l-16.63 8.28A24.06 24.06 0 0166.17 39l18.5-1.75a42 42 0 00-3.53-12.41" fill="#00adef"/><path id="bdPath_820" data-name="Path 820" d="M63.32 30.73l16.62-8.29a42.53 42.53 0 00-7.77-10.31L59.63 25.82a24.56 24.56 0 013.69 4.91" fill="#00adef"/><path id="bdPath_821" data-name="Path 821" d="M18.56 42.49v-1.12L.09 39.71C0 40.63 0 41.55 0 42.49a42.57 42.57 0 001.26 10.29l17.87-5.13a23.64 23.64 0 01-.56-5.16" fill="#068dfc"/><path id="bdPath_822" data-name="Path 822" d="M61 57.64a24.48 24.48 0 01-4.51 4.24l9.75 15.82a43 43 0 009.57-8.88z" fill="#dadede"/><path id="bdPath_823" data-name="Path 823" d="M66.43 42.48a23.57 23.57 0 01-.55 5.1l17.87 5.14A42.59 42.59 0 0085 42.48c0-.88 0-1.75-.08-2.61l-18.5 1.74v.87" fill="#dadede"/><path id="bdPath_824" data-name="Path 824" d="M24.31 58L9.52 69.23A43 43 0 0019.18 78l9.76-15.8a24.25 24.25 0 01-4.63-4.2" fill="#068dfc"/><path id="bdPath_825" data-name="Path 825" d="M18.86 38.72a23.81 23.81 0 011.78-6L4 24.48A42.22 42.22 0 00.35 37.06z" fill="#068dfc"/><path id="bdPath_826" data-name="Path 826" d="M64 79.13l-9.75-15.8a24 24 0 01-5.69 2.31L52 83.92a42.57 42.57 0 0012-4.79" fill="#dadede"/><path id="bdPath_827" data-name="Path 827" d="M65.17 50.16a23.57 23.57 0 01-2.6 5.34l14.84 11.19A42.6 42.6 0 0083 55.29z" fill="#dadede"/><path id="bdPath_828" data-name="Path 828" d="M46 66.19a23.85 23.85 0 01-6.26.08l-3.48 18.27a42.57 42.57 0 0013.14-.1z" fill="#dadede"/><path id="bdPath_829" data-name="Path 829" d="M44 18.6a23.66 23.66 0 016 1.15L56.63 2.4A42.41 42.41 0 0044 0z" fill="#00adef"/><path id="bdPath_830" data-name="Path 830" d="M37.09 65.81a24.06 24.06 0 01-5.89-2.22l-9.77 15.8a42.58 42.58 0 0012.22 4.68z" fill="#068dfc"/><path id="bdPath_831" data-name="Path 831" d="M35.3 19.66a23.52 23.52 0 016.06-1.08V0a42.24 42.24 0 00-12.78 2.33z" fill="#00adef"/><path id="bdPath_832" data-name="Path 832" d="M22.68 55.89a24.12 24.12 0 01-2.83-5.68L2 55.34a42.46 42.46 0 005.9 11.79z" fill="#068dfc"/><path id="bdPath_833" data-name="Path 833" d="M27.66 23.72a24.1 24.1 0 015.15-3.11L26.1 3.29a42.72 42.72 0 00-11 6.7z" fill="#00adef"/></g></g></symbol><symbol viewBox="0 0 85 85" id="sustainable-development-goals~hover" xmlns="http://www.w3.org/2000/svg"><defs><style/></defs><g id="beLayer_2" data-name="Layer 2"><g id="beLayer_1-2" data-name="Layer 1"><path id="bePath_817" data-name="Path 817" d="M21.87 30.41a24.14 24.14 0 013.81-4.9L13.17 11.79a42.67 42.67 0 00-7.94 10.33z" fill="#dadede"/><path id="bePath_818" data-name="Path 818" d="M52.44 20.72A23.8 23.8 0 0157.68 24l12.55-13.7a42.9 42.9 0 00-11.12-6.93z" fill="#f2f2f2"/><path id="bePath_819" data-name="Path 819" d="M81.14 24.81l-16.63 8.28A24.06 24.06 0 0166.17 39l18.5-1.75a42 42 0 00-3.53-12.41" fill="#f2f2f2"/><path id="bePath_820" data-name="Path 820" d="M63.32 30.73l16.62-8.29a42.53 42.53 0 00-7.77-10.31L59.63 25.82a24.56 24.56 0 013.69 4.91" fill="#f2f2f2"/><path id="bePath_821" data-name="Path 821" d="M18.56 42.49v-1.12L.09 39.71C0 40.63 0 41.55 0 42.49a42.57 42.57 0 001.26 10.29l17.87-5.13a23.64 23.64 0 01-.56-5.16" fill="#dadede"/><path id="bePath_822" data-name="Path 822" d="M61 57.64a24.48 24.48 0 01-4.51 4.24l9.75 15.82a43 43 0 009.57-8.88z" fill="#fff"/><path id="bePath_823" data-name="Path 823" d="M66.43 42.48a23.57 23.57 0 01-.55 5.1l17.87 5.14A42.59 42.59 0 0085 42.48c0-.88 0-1.75-.08-2.61l-18.5 1.74v.87" fill="#fff"/><path id="bePath_824" data-name="Path 824" d="M24.31 58L9.52 69.23A43 43 0 0019.18 78l9.76-15.8a24.25 24.25 0 01-4.63-4.2" fill="#dadede"/><path id="bePath_825" data-name="Path 825" d="M18.86 38.72a23.81 23.81 0 011.78-6L4 24.48A42.22 42.22 0 00.35 37.06z" fill="#dadede"/><path id="bePath_826" data-name="Path 826" d="M64 79.13l-9.75-15.8a24 24 0 01-5.69 2.31L52 83.92a42.57 42.57 0 0012-4.79" fill="#fff"/><path id="bePath_827" data-name="Path 827" d="M65.17 50.16a23.57 23.57 0 01-2.6 5.34l14.84 11.19A42.6 42.6 0 0083 55.29z" fill="#fff"/><path id="bePath_828" data-name="Path 828" d="M46 66.19a23.85 23.85 0 01-6.26.08l-3.48 18.27a42.57 42.57 0 0013.14-.1z" fill="#fff"/><path id="bePath_829" data-name="Path 829" d="M44 18.6a23.66 23.66 0 016 1.15L56.63 2.4A42.41 42.41 0 0044 0z" fill="#f2f2f2"/><path id="bePath_830" data-name="Path 830" d="M37.09 65.81a24.06 24.06 0 01-5.89-2.22l-9.77 15.8a42.58 42.58 0 0012.22 4.68z" fill="#dadede"/><path id="bePath_831" data-name="Path 831" d="M35.3 19.66a23.52 23.52 0 016.06-1.08V0a42.24 42.24 0 00-12.78 2.33z" fill="#f2f2f2"/><path id="bePath_832" data-name="Path 832" d="M22.68 55.89a24.12 24.12 0 01-2.83-5.68L2 55.34a42.46 42.46 0 005.9 11.79z" fill="#dadede"/><path id="bePath_833" data-name="Path 833" d="M27.66 23.72a24.1 24.1 0 015.15-3.11L26.1 3.29a42.72 42.72 0 00-11 6.7z" fill="#f2f2f2"/></g></g></symbol><symbol viewBox="0 0 85 85" id="sustainable-development~hover" xmlns="http://www.w3.org/2000/svg"><defs><style/></defs><g id="bfLayer_2" data-name="Layer 2"><g id="bfLayer_1-2" data-name="Layer 1"><path id="bfPath_817" data-name="Path 817" d="M21.87 30.41a24.14 24.14 0 013.81-4.9L13.17 11.79a42.67 42.67 0 00-7.94 10.33z" fill="#dadede"/><path id="bfPath_818" data-name="Path 818" d="M52.44 20.72A23.8 23.8 0 0157.68 24l12.55-13.7a42.9 42.9 0 00-11.12-6.93z" fill="#f2f2f2"/><path id="bfPath_819" data-name="Path 819" d="M81.14 24.81l-16.63 8.28A24.06 24.06 0 0166.17 39l18.5-1.75a42 42 0 00-3.53-12.41" fill="#f2f2f2"/><path id="bfPath_820" data-name="Path 820" d="M63.32 30.73l16.62-8.29a42.53 42.53 0 00-7.77-10.31L59.63 25.82a24.56 24.56 0 013.69 4.91" fill="#f2f2f2"/><path id="bfPath_821" data-name="Path 821" d="M18.56 42.49v-1.12L.09 39.71C0 40.63 0 41.55 0 42.49a42.57 42.57 0 001.26 10.29l17.87-5.13a23.64 23.64 0 01-.56-5.16" fill="#dadede"/><path id="bfPath_822" data-name="Path 822" d="M61 57.64a24.48 24.48 0 01-4.51 4.24l9.75 15.82a43 43 0 009.57-8.88z" fill="#fff"/><path id="bfPath_823" data-name="Path 823" d="M66.43 42.48a23.57 23.57 0 01-.55 5.1l17.87 5.14A42.59 42.59 0 0085 42.48c0-.88 0-1.75-.08-2.61l-18.5 1.74v.87" fill="#fff"/><path id="bfPath_824" data-name="Path 824" d="M24.31 58L9.52 69.23A43 43 0 0019.18 78l9.76-15.8a24.25 24.25 0 01-4.63-4.2" fill="#dadede"/><path id="bfPath_825" data-name="Path 825" d="M18.86 38.72a23.81 23.81 0 011.78-6L4 24.48A42.22 42.22 0 00.35 37.06z" fill="#dadede"/><path id="bfPath_826" data-name="Path 826" d="M64 79.13l-9.75-15.8a24 24 0 01-5.69 2.31L52 83.92a42.57 42.57 0 0012-4.79" fill="#fff"/><path id="bfPath_827" data-name="Path 827" d="M65.17 50.16a23.57 23.57 0 01-2.6 5.34l14.84 11.19A42.6 42.6 0 0083 55.29z" fill="#fff"/><path id="bfPath_828" data-name="Path 828" d="M46 66.19a23.85 23.85 0 01-6.26.08l-3.48 18.27a42.57 42.57 0 0013.14-.1z" fill="#fff"/><path id="bfPath_829" data-name="Path 829" d="M44 18.6a23.66 23.66 0 016 1.15L56.63 2.4A42.41 42.41 0 0044 0z" fill="#f2f2f2"/><path id="bfPath_830" data-name="Path 830" d="M37.09 65.81a24.06 24.06 0 01-5.89-2.22l-9.77 15.8a42.58 42.58 0 0012.22 4.68z" fill="#dadede"/><path id="bfPath_831" data-name="Path 831" d="M35.3 19.66a23.52 23.52 0 016.06-1.08V0a42.24 42.24 0 00-12.78 2.33z" fill="#f2f2f2"/><path id="bfPath_832" data-name="Path 832" d="M22.68 55.89a24.12 24.12 0 01-2.83-5.68L2 55.34a42.46 42.46 0 005.9 11.79z" fill="#dadede"/><path id="bfPath_833" data-name="Path 833" d="M27.66 23.72a24.1 24.1 0 015.15-3.11L26.1 3.29a42.72 42.72 0 00-11 6.7z" fill="#f2f2f2"/></g></g></symbol><symbol viewBox="0 0 55 50.49" id="trade" xmlns="http://www.w3.org/2000/svg"><g data-name="Layer 2"><g data-name="Layer 1"><g data-name="Group 688"><path data-name="Path 853" fill="#00adef" d="M7.49 34.52l38-22a5 5 0 001.83-6.82 5 5 0 00-6.82-1.83L12.94 19.85 9.82 31.49a5 5 0 01-2.33 3.03z"/><path data-name="Path 858" fill="#00adef" d="M12.94 19.84l3.63-13.55A5 5 0 106.92 3.7L.17 28.9a5 5 0 012.33-3z"/><path data-name="Path 879" fill="#068dfc" d="M1.08 33.28l.16.21.18.18a1.33 1.33 0 00.16.17l.19.17.18.15.2.14.21.14.2.11.22.12.25.11.2.09a4.26 4.26 0 00.47.13l.48.11h1.94l.23-.11.24-.07.25-.1.21-.08a4.64 4.64 0 00.44-.23 5 5 0 002.32-3l3.12-11.64-10.44 6a5 5 0 00-2.32 3 4.15 4.15 0 00-.11.48v.22a1.86 1.86 0 000 .26C0 30 0 30 0 30.13v.23a2.11 2.11 0 000 .25v.47c0 .08 0 .17.05.25l.06.22.07.25c0 .08.07.16.1.25a2.07 2.07 0 00.08.2c.07.15.15.3.23.44a3.74 3.74 0 00.27.42 2.09 2.09 0 00.22.17z"/><path data-name="Path 889" fill="#00adef" d="M47.51 16l-38 22a5 5 0 00-1.83 6.82 5 5 0 006.82 1.83l27.6-15.94L45.18 19a5 5 0 012.33-3z"/><path data-name="Path 908" fill="#00adef" d="M42.06 30.65l-3.63 13.56a5 5 0 009.65 2.58l6.75-25.2a5 5 0 01-2.33 3z"/><path data-name="Path 925" fill="#068dfc" d="M55 20.63v-.49a2.11 2.11 0 000-.25v-.47c0-.08 0-.17-.05-.25l-.14-.17-.07-.25c0-.08-.07-.16-.1-.25l-.08-.2c-.07-.15-.15-.3-.23-.44a3.74 3.74 0 00-.27-.42l-.13-.17-.17-.27c-.06-.07-.12-.12-.18-.18a1.33 1.33 0 00-.16-.17l-.19-.17-.18-.15a1.37 1.37 0 00-.2-.13l-.21-.15-.2-.11-.22-.12-.22-.1-.2-.09a3.68 3.68 0 00-.47-.15l-.48-.11h-1.94l-.23.06-.24.07-.25.1-.21.08a4.5 4.5 0 00-.43.23 5 5 0 00-2.33 3l-3.15 11.74 10.44-6a5 5 0 002.33-3c0-.16.07-.32.1-.48a1.5 1.5 0 000-.22c.06-.13.06-.24.06-.32z"/></g></g></g></symbol><symbol viewBox="0 0 55 50.49" id="trade~hover" xmlns="http://www.w3.org/2000/svg"><g data-name="Layer 2"><g data-name="Layer 1"><path data-name="Path 853" fill="#f2f2f2" d="M7.49 34.52l38-22a5 5 0 001.83-6.82 5 5 0 00-6.82-1.83L12.94 19.85 9.82 31.49a5 5 0 01-2.33 3.03z"/><path data-name="Path 858" fill="#f2f2f2" d="M12.94 19.84l3.63-13.55A5 5 0 106.92 3.7L.17 28.9a5 5 0 012.33-3z"/><path data-name="Path 879" fill="#dadede" d="M1.08 33.28l.16.21.18.18a1.33 1.33 0 00.16.17l.19.17.18.15.2.14.21.14.2.11.22.12.25.11.2.09a4.26 4.26 0 00.47.13l.48.11h1.94l.23-.11.24-.07.25-.1.21-.08a4.64 4.64 0 00.44-.23 5 5 0 002.32-3l3.12-11.64-10.44 6a5 5 0 00-2.32 3 4.15 4.15 0 00-.11.48v.22a1.86 1.86 0 000 .26C0 30 0 30 0 30.13v.23a2.11 2.11 0 000 .25v.47c0 .08 0 .17.05.25l.06.22.07.25c0 .08.07.16.1.25a2.07 2.07 0 00.08.2c.07.15.15.3.23.44a3.74 3.74 0 00.27.42 2.09 2.09 0 00.22.17z"/><path data-name="Path 889" fill="#f2f2f2" d="M47.51 16l-38 22a5 5 0 00-1.83 6.82 5 5 0 006.82 1.83l27.6-15.94L45.18 19a5 5 0 012.33-3z"/><path data-name="Path 908" fill="#f2f2f2" d="M42.06 30.65l-3.63 13.56a5 5 0 009.65 2.58l6.75-25.2a5 5 0 01-2.33 3z"/><path data-name="Path 925" fill="#dadede" d="M55 20.63v-.49a2.11 2.11 0 000-.25v-.47c0-.08 0-.17-.05-.25l-.14-.17-.07-.25c0-.08-.07-.16-.1-.25l-.08-.2c-.07-.15-.15-.3-.23-.44a3.74 3.74 0 00-.27-.42l-.13-.17-.17-.27c-.06-.07-.12-.12-.18-.18a1.33 1.33 0 00-.16-.17l-.19-.17-.18-.15a1.37 1.37 0 00-.2-.13l-.21-.15-.2-.11-.22-.12-.22-.1-.2-.09a3.68 3.68 0 00-.47-.15l-.48-.11h-1.94l-.23.06-.24.07-.25.1-.21.08a4.5 4.5 0 00-.43.23 5 5 0 00-2.33 3l-3.15 11.74 10.44-6a5 5 0 002.33-3c0-.16.07-.32.1-.48a1.5 1.5 0 000-.22c.06-.13.06-.24.06-.32z"/></g></g></symbol></svg>